<?xml version="1.0" encoding="utf-8"?>
<!-- Generator: Adobe Illustrator 25.2.1, SVG Export Plug-In . SVG Version: 6.00 Build 0)  -->
<svg version="1.1" id="Layer_1" xmlns="http://www.w3.org/2000/svg" xmlns:xlink="http://www.w3.org/1999/xlink" x="0px" y="0px"
	 viewBox="0 0 1920 478" style="enable-background:new 0 0 1920 478;" xml:space="preserve">
<style type="text/css">
	.st0{clip-path:url(#SVGID_2_);}
	.st1{clip-path:url(#SVGID_4_);}
	.st2{clip-path:url(#SVGID_6_);}
	.st3{fill:#F6921E;}
	.st4{fill:#FAAF40;}
	.st5{fill:#F6921E;stroke:#231F20;stroke-width:0.2319;stroke-miterlimit:10;}
	.st6{fill:#FAAF40;stroke:#231F20;stroke-width:0.2311;stroke-miterlimit:10;}
	.st7{fill:#F6921E;stroke:#231F20;stroke-width:0.2236;stroke-miterlimit:10;}
	.st8{fill:#FAAF40;stroke:#231F20;stroke-width:0.2236;stroke-miterlimit:10;}
	.st9{fill:#F6921E;stroke:#231F20;stroke-width:0.1747;stroke-miterlimit:10;}
	.st10{fill:#FAAF40;stroke:#231F20;stroke-width:0.1741;stroke-miterlimit:10;}
	.st11{fill:#F6921E;stroke:#231F20;stroke-width:0.1684;stroke-miterlimit:10;}
	.st12{fill:#FAAF40;stroke:#231F20;stroke-width:0.1684;stroke-miterlimit:10;}
	.st13{fill:#F6921E;stroke:#231F20;stroke-width:0.1004;stroke-miterlimit:10;}
	.st14{fill:#FAAF40;stroke:#231F20;stroke-width:0.1;stroke-miterlimit:10;}
	.st15{fill:#F6921E;stroke:#231F20;stroke-width:9.677314e-02;stroke-miterlimit:10;}
	.st16{fill:#FAAF40;stroke:#231F20;stroke-width:9.677314e-02;stroke-miterlimit:10;}
	.st17{fill:#FAAF40;stroke:#231F20;stroke-width:7.066043e-02;stroke-miterlimit:10;}
	.st18{fill:#F6921E;stroke:#231F20;stroke-width:6.834826e-02;stroke-miterlimit:10;}
	.st19{fill:#FAAF40;stroke:#231F20;stroke-width:6.834826e-02;stroke-miterlimit:10;}
	.st20{clip-path:url(#SVGID_8_);}
	.st21{clip-path:url(#SVGID_10_);}
</style>
<g>
	<defs>
		<rect id="SVGID_1_" width="1920" height="478"/>
	</defs>
	<clipPath id="SVGID_2_">
		<use xlink:href="#SVGID_1_"  style="overflow:visible;"/>
	</clipPath>
	<g class="st0">
		<defs>
			<rect id="SVGID_3_" width="1937" height="600"/>
		</defs>
		<clipPath id="SVGID_4_">
			<use xlink:href="#SVGID_3_"  style="overflow:visible;"/>
		</clipPath>
		<g class="st1">
			<defs>
				<rect id="SVGID_5_" x="954.6" y="-798.2" width="1033.9" height="1533.2"/>
			</defs>
			<clipPath id="SVGID_6_">
				<use xlink:href="#SVGID_5_"  style="overflow:visible;"/>
			</clipPath>
			<g class="st2">
				
					<rect x="1147.1" y="419.5" transform="matrix(4.221105e-03 -1 1 4.221105e-03 721.7175 1648.9615)" class="st5" width="83.5" height="85.1"/>
				
					<rect x="1039.2" y="418.6" transform="matrix(4.221205e-03 -1 1 4.221205e-03 614.9308 1539.9098)" class="st6" width="82.9" height="85.1"/>
				
					<rect x="1349" y="423.3" transform="matrix(4.233396e-03 -1 1 4.233396e-03 921.7294 1851.6385)" class="st7" width="83.3" height="79.3"/>
				
					<rect x="1541.9" y="424.4" transform="matrix(4.234553e-03 -1 1 4.234553e-03 1112.8013 2045.6093)" class="st7" width="83.3" height="79.3"/>
				
					<rect x="1740" y="425.2" transform="matrix(4.234764e-03 -1 1 4.234764e-03 1309.2465 2244.5698)" class="st7" width="83.3" height="79.3"/>
				
					<rect x="1250.4" y="422.8" transform="matrix(4.233293e-03 -1 1 4.233293e-03 824.0518 1752.4907)" class="st8" width="83.3" height="79.3"/>
				
					<rect x="1446.5" y="423.8" transform="matrix(4.234553e-03 -1 1 4.234553e-03 1018.4012 1949.6532)" class="st8" width="83.3" height="79.3"/>
				
					<rect x="1639.3" y="424.9" transform="matrix(4.233606e-03 -1 1 4.233606e-03 1209.2195 2143.4734)" class="st8" width="83.3" height="79.3"/>
				
					<rect x="1840.7" y="425.6" transform="matrix(4.258818e-03 -1 1 4.258818e-03 1409.0084 2345.6145)" class="st8" width="83.3" height="79.3"/>
				
					<rect x="1165.2" y="336.2" transform="matrix(4.221200e-03 -1 1 4.221200e-03 805.0863 1566.1021)" class="st9" width="47.4" height="85.1"/>
				
					<rect x="1057.2" y="335.5" transform="matrix(4.221205e-03 -1 1 4.221205e-03 698.1055 1457.241)" class="st10" width="47.1" height="85.1"/>
				
					<rect x="1367.1" y="340" transform="matrix(4.233504e-03 -1 1 4.233504e-03 1005.1202 1768.7582)" class="st11" width="47.3" height="79.3"/>
				
					<rect x="1560" y="341" transform="matrix(4.258499e-03 -1 1 4.258499e-03 1196.2227 1962.6498)" class="st11" width="47.3" height="79.3"/>
				
					<rect x="1758.1" y="341.8" transform="matrix(4.233504e-03 -1 1 4.233504e-03 1392.7084 2161.6196)" class="st11" width="47.3" height="79.3"/>
				
					<rect x="1268.4" y="339.5" transform="matrix(4.233401e-03 -1 1 4.233401e-03 907.3957 1669.6552)" class="st12" width="47.3" height="79.3"/>
				
					<rect x="1464.6" y="340.5" transform="matrix(4.233396e-03 -1 1 4.233396e-03 1101.8163 1866.7491)" class="st12" width="47.3" height="79.3"/>
				
					<rect x="1657.3" y="341.5" transform="matrix(4.233396e-03 -1 1 4.233396e-03 1292.726 2060.4795)" class="st12" width="47.3" height="79.3"/>
				
					<rect x="1858.8" y="342.2" transform="matrix(4.209558e-03 -1 1 4.209558e-03 1492.5554 2262.6914)" class="st12" width="47.3" height="79.3"/>
				
					<rect x="1181.2" y="288.3" transform="matrix(4.221200e-03 -1 1 4.221200e-03 853.1381 1518.3894)" class="st13" width="15.6" height="85.1"/>
				
					<rect x="1073.1" y="287.7" transform="matrix(4.243520e-03 -1 1 4.243520e-03 745.9618 1409.6906)" class="st14" width="15.5" height="85.1"/>
				
					<rect x="1383" y="292" transform="matrix(4.234764e-03 -1 1 4.234764e-03 1053.1884 1721.0277)" class="st15" width="15.6" height="79.3"/>
				
					<rect x="1575.9" y="292.9" transform="matrix(4.209348e-03 -1 1 4.209348e-03 1244.4299 1914.8792)" class="st15" width="15.6" height="79.3"/>
				
					<rect x="1774" y="293.8" transform="matrix(4.258607e-03 -1 1 4.258607e-03 1440.7942 2113.8208)" class="st15" width="15.6" height="79.3"/>
				
					<rect x="1284.3" y="291.6" transform="matrix(4.233401e-03 -1 1 4.233401e-03 955.4226 1621.9679)" class="st16" width="15.6" height="79.3"/>
				
					<rect x="1480.5" y="292.4" transform="matrix(4.233396e-03 -1 1 4.233396e-03 1149.9066 1818.9996)" class="st16" width="15.6" height="79.3"/>
				
					<rect x="1673.2" y="293.4" transform="matrix(4.233396e-03 -1 1 4.233396e-03 1340.8959 2012.6488)" class="st16" width="15.6" height="79.3"/>
				
					<rect x="1874.7" y="294.2" transform="matrix(4.258710e-03 -1 1 4.258710e-03 1540.588 2214.8884)" class="st16" width="15.6" height="79.3"/>
				
					<rect x="1181.2" y="259.4" transform="matrix(4.244690e-03 -1 1 4.244690e-03 881.9557 1489.6582)" class="st13" width="15.6" height="85.1"/>
				
					<rect x="1073.1" y="258.9" transform="matrix(4.244694e-03 -1 1 4.244694e-03 774.8055 1380.9673)" class="st14" width="15.5" height="85.1"/>
				
					<rect x="1383" y="263.2" transform="matrix(4.234764e-03 -1 1 4.234764e-03 1082.0337 1692.3042)" class="st15" width="15.6" height="79.3"/>
				
					<rect x="1575.9" y="264.1" transform="matrix(4.234553e-03 -1 1 4.234553e-03 1273.235 1886.1476)" class="st15" width="15.6" height="79.3"/>
				
					<rect x="1774" y="264.9" transform="matrix(4.258607e-03 -1 1 4.258607e-03 1469.6382 2085.0994)" class="st15" width="15.6" height="79.3"/>
				
					<rect x="1284.3" y="262.7" transform="matrix(4.233401e-03 -1 1 4.233401e-03 984.2675 1593.2448)" class="st16" width="15.6" height="79.3"/>
				
					<rect x="1480.5" y="263.6" transform="matrix(4.209450e-03 -1 1 4.209450e-03 1178.7872 1790.2839)" class="st16" width="15.6" height="79.3"/>
				
					<rect x="1874.7" y="265.3" transform="matrix(4.233504e-03 -1 1 4.233504e-03 1569.4805 2186.1738)" class="st16" width="15.6" height="79.3"/>
				
					<rect x="1181.2" y="232.7" transform="matrix(4.243515e-03 -1 1 4.243515e-03 908.6649 1463.064)" class="st13" width="15.6" height="85.1"/>
				
					<rect x="1073.1" y="232.2" transform="matrix(4.221205e-03 -1 1 4.221205e-03 801.5386 1354.3793)" class="st14" width="15.5" height="85.1"/>
				
					<rect x="1383" y="236.5" transform="matrix(4.233504e-03 -1 1 4.233504e-03 1108.7433 1665.7096)" class="st15" width="15.6" height="79.3"/>
				
					<rect x="1774" y="238.2" transform="matrix(4.258607e-03 -1 1 4.258607e-03 1496.3469 2058.5042)" class="st15" width="15.6" height="79.3"/>
				
					<rect x="1480.5" y="236.9" transform="matrix(4.258601e-03 -1 1 4.258601e-03 1205.4229 1763.6735)" class="st16" width="15.6" height="79.3"/>
				
					<rect x="1874.7" y="238.6" transform="matrix(4.258710e-03 -1 1 4.258710e-03 1596.1407 2159.5718)" class="st16" width="15.6" height="79.3"/>
				
					<rect x="1077" y="209" transform="matrix(4.244694e-03 -1 1 4.244694e-03 824.6533 1331.3641)" class="st17" width="7.8" height="85.1"/>
				
					<rect x="1386.9" y="213.3" transform="matrix(4.258710e-03 -1 1 4.258710e-03 1131.8951 1642.6475)" class="st18" width="7.8" height="79.3"/>
				
					<rect x="1777.9" y="215" transform="matrix(4.233401e-03 -1 1 4.233401e-03 1519.5944 2035.4431)" class="st18" width="7.8" height="79.3"/>
				
					<rect x="1484.4" y="213.7" transform="matrix(4.258601e-03 -1 1 4.258601e-03 1228.6132 1740.6161)" class="st19" width="7.8" height="79.3"/>
			</g>
		</g>
		<g class="st1">
			<defs>
				<rect id="SVGID_7_" x="51.6" y="-802.2" width="1033.9" height="1533.2"/>
			</defs>
			<clipPath id="SVGID_8_">
				<use xlink:href="#SVGID_7_"  style="overflow:visible;"/>
			</clipPath>
			<g class="st20">
				
					<rect x="244.1" y="415.5" transform="matrix(4.221180e-03 -1 1 4.221180e-03 -173.4977 741.9596)" class="st5" width="83.5" height="85.1"/>
				
					<rect x="136.2" y="414.6" transform="matrix(4.221205e-03 -1 1 4.221205e-03 -280.2847 632.9074)" class="st6" width="82.9" height="85.1"/>
				
					<rect x="446" y="419.3" transform="matrix(4.233422e-03 -1 1 4.233422e-03 26.5253 944.6367)" class="st7" width="83.3" height="79.3"/>
				
					<rect x="638.9" y="420.4" transform="matrix(4.234607e-03 -1 1 4.234607e-03 217.5977 1138.6068)" class="st7" width="83.3" height="79.3"/>
				
					<rect x="837" y="421.2" transform="matrix(4.234813e-03 -1 1 4.234813e-03 414.043 1337.5675)" class="st7" width="83.3" height="79.3"/>
				
					<rect x="347.3" y="418.8" transform="matrix(4.233347e-03 -1 1 4.233347e-03 -71.1528 845.4885)" class="st8" width="83.3" height="79.3"/>
				
					<rect x="543.5" y="419.8" transform="matrix(4.234629e-03 -1 1 4.234629e-03 123.1977 1042.651)" class="st8" width="83.3" height="79.3"/>
				
					<rect x="736.2" y="420.9" transform="matrix(4.233559e-03 -1 1 4.233559e-03 314.0149 1236.4709)" class="st8" width="83.3" height="79.3"/>
				
					<rect x="937.7" y="421.6" transform="matrix(4.258818e-03 -1 1 4.258818e-03 513.8264 1438.6118)" class="st8" width="83.3" height="79.3"/>
				
					<rect x="262.2" y="332.2" transform="matrix(4.221205e-03 -1 1 4.221205e-03 -90.1296 659.0993)" class="st9" width="47.4" height="85.1"/>
				
					<rect x="154.2" y="331.5" transform="matrix(4.221205e-03 -1 1 4.221205e-03 -197.1102 550.2384)" class="st10" width="47.1" height="85.1"/>
				
					<rect x="464" y="336" transform="matrix(4.233525e-03 -1 1 4.233525e-03 109.9158 861.7559)" class="st11" width="47.3" height="79.3"/>
				
					<rect x="657" y="337" transform="matrix(4.258553e-03 -1 1 4.258553e-03 301.0405 1055.6473)" class="st11" width="47.3" height="79.3"/>
				
					<rect x="855.1" y="337.8" transform="matrix(4.233552e-03 -1 1 4.233552e-03 497.5041 1254.6176)" class="st11" width="47.3" height="79.3"/>
				
					<rect x="365.4" y="335.5" transform="matrix(4.233401e-03 -1 1 4.233401e-03 12.1911 762.6528)" class="st12" width="47.3" height="79.3"/>
				
					<rect x="561.6" y="336.5" transform="matrix(4.233450e-03 -1 1 4.233450e-03 206.6118 959.7469)" class="st12" width="47.3" height="79.3"/>
				
					<rect x="754.3" y="337.5" transform="matrix(4.233402e-03 -1 1 4.233402e-03 397.5209 1153.4767)" class="st12" width="47.3" height="79.3"/>
				
					<rect x="955.7" y="338.2" transform="matrix(4.209503e-03 -1 1 4.209503e-03 597.3294 1355.6888)" class="st12" width="47.3" height="79.3"/>
				
					<rect x="278.1" y="284.3" transform="matrix(4.221154e-03 -1 1 4.221154e-03 -42.0773 611.3871)" class="st13" width="15.6" height="85.1"/>
				
					<rect x="170" y="283.7" transform="matrix(4.243520e-03 -1 1 4.243520e-03 -149.2335 502.6884)" class="st14" width="15.5" height="85.1"/>
				
					<rect x="479.9" y="288" transform="matrix(4.234786e-03 -1 1 4.234786e-03 157.9853 814.0257)" class="st15" width="15.6" height="79.3"/>
				
					<rect x="672.9" y="288.9" transform="matrix(4.209402e-03 -1 1 4.209402e-03 349.2034 1007.8763)" class="st15" width="15.6" height="79.3"/>
				
					<rect x="871" y="289.8" transform="matrix(4.258601e-03 -1 1 4.258601e-03 545.6128 1206.8191)" class="st15" width="15.6" height="79.3"/>
				
					<rect x="381.3" y="287.6" transform="matrix(4.233401e-03 -1 1 4.233401e-03 60.2183 714.9658)" class="st16" width="15.6" height="79.3"/>
				
					<rect x="577.5" y="288.4" transform="matrix(4.233450e-03 -1 1 4.233450e-03 254.7018 911.9969)" class="st16" width="15.6" height="79.3"/>
				
					<rect x="770.2" y="289.4" transform="matrix(4.233402e-03 -1 1 4.233402e-03 445.6911 1105.6461)" class="st16" width="15.6" height="79.3"/>
				
					<rect x="971.6" y="290.2" transform="matrix(4.258655e-03 -1 1 4.258655e-03 645.4064 1307.8862)" class="st16" width="15.6" height="79.3"/>
				
					<rect x="278.1" y="255.4" transform="matrix(4.244644e-03 -1 1 4.244644e-03 -13.2385 582.6561)" class="st13" width="15.6" height="85.1"/>
				
					<rect x="170" y="254.9" transform="matrix(4.244695e-03 -1 1 4.244695e-03 -120.3887 473.9651)" class="st14" width="15.5" height="85.1"/>
				
					<rect x="479.9" y="259.2" transform="matrix(4.234786e-03 -1 1 4.234786e-03 186.8307 785.3021)" class="st15" width="15.6" height="79.3"/>
				
					<rect x="672.9" y="260.1" transform="matrix(4.234607e-03 -1 1 4.234607e-03 378.0312 979.145)" class="st15" width="15.6" height="79.3"/>
				
					<rect x="871" y="260.9" transform="matrix(4.258601e-03 -1 1 4.258601e-03 574.4568 1178.0977)" class="st15" width="15.6" height="79.3"/>
				
					<rect x="381.3" y="258.7" transform="matrix(4.233401e-03 -1 1 4.233401e-03 89.0632 686.2427)" class="st16" width="15.6" height="79.3"/>
				
					<rect x="577.5" y="259.6" transform="matrix(4.209504e-03 -1 1 4.209504e-03 283.5608 883.2811)" class="st16" width="15.6" height="79.3"/>
				
					<rect x="971.6" y="261.3" transform="matrix(4.233448e-03 -1 1 4.233448e-03 674.276 1279.1716)" class="st16" width="15.6" height="79.3"/>
				
					<rect x="278.1" y="228.7" transform="matrix(4.243469e-03 -1 1 4.243469e-03 13.4696 556.0618)" class="st13" width="15.6" height="85.1"/>
				
					<rect x="170" y="228.2" transform="matrix(4.221205e-03 -1 1 4.221205e-03 -93.6768 447.3769)" class="st14" width="15.5" height="85.1"/>
				
					<rect x="479.9" y="232.5" transform="matrix(4.233525e-03 -1 1 4.233525e-03 213.5391 758.7076)" class="st15" width="15.6" height="79.3"/>
				
					<rect x="871" y="234.2" transform="matrix(4.258601e-03 -1 1 4.258601e-03 601.1655 1151.5024)" class="st15" width="15.6" height="79.3"/>
				
					<rect x="577.5" y="232.9" transform="matrix(4.258656e-03 -1 1 4.258656e-03 310.2408 856.671)" class="st16" width="15.6" height="79.3"/>
				
					<rect x="971.6" y="234.6" transform="matrix(4.258655e-03 -1 1 4.258655e-03 700.9592 1252.5696)" class="st16" width="15.6" height="79.3"/>
				
					<rect x="173.9" y="205" transform="matrix(4.244695e-03 -1 1 4.244695e-03 -70.5408 424.3621)" class="st17" width="7.8" height="85.1"/>
				
					<rect x="483.9" y="209.3" transform="matrix(4.258732e-03 -1 1 4.258732e-03 236.7142 735.6461)" class="st18" width="7.8" height="79.3"/>
				
					<rect x="874.9" y="211" transform="matrix(4.233396e-03 -1 1 4.233396e-03 624.3898 1128.4408)" class="st18" width="7.8" height="79.3"/>
				
					<rect x="581.4" y="209.7" transform="matrix(4.258656e-03 -1 1 4.258656e-03 333.4312 833.6138)" class="st19" width="7.8" height="79.3"/>
			</g>
		</g>
		<g class="st1">
			<defs>
				<rect id="SVGID_9_" x="-748.1" y="-809.5" width="1033.9" height="1533.2"/>
			</defs>
			<clipPath id="SVGID_10_">
				<use xlink:href="#SVGID_9_"  style="overflow:visible;"/>
			</clipPath>
			<g class="st21">
				
					<rect x="37.3" y="413.9" transform="matrix(4.234813e-03 -1 1 4.234813e-03 -374.9948 530.6357)" class="st7" width="83.3" height="79.3"/>
				
					<rect x="-63.5" y="413.6" transform="matrix(4.233559e-03 -1 1 4.233559e-03 -475.024 429.5391)" class="st8" width="83.3" height="79.3"/>
				
					<rect x="55.4" y="330.6" transform="matrix(4.233552e-03 -1 1 4.233552e-03 -291.5347 447.6857)" class="st11" width="47.3" height="79.3"/>
				
					<rect x="-45.4" y="330.2" transform="matrix(4.233402e-03 -1 1 4.233402e-03 -391.5181 346.5448)" class="st12" width="47.3" height="79.3"/>
				
					<rect x="71.3" y="282.5" transform="matrix(4.258601e-03 -1 1 4.258601e-03 -243.406 399.8875)" class="st15" width="15.6" height="79.3"/>
				
					<rect x="-29.5" y="282.1" transform="matrix(4.233402e-03 -1 1 4.233402e-03 -343.3478 298.7143)" class="st16" width="15.6" height="79.3"/>
				
					<rect x="71.3" y="253.6" transform="matrix(4.258601e-03 -1 1 4.258601e-03 -214.562 371.166)" class="st15" width="15.6" height="79.3"/>
				
					<rect x="71.3" y="226.9" transform="matrix(4.258601e-03 -1 1 4.258601e-03 -187.8533 344.5708)" class="st15" width="15.6" height="79.3"/>
				
					<rect x="75.2" y="203.8" transform="matrix(4.233396e-03 -1 1 4.233396e-03 -164.6492 321.5089)" class="st18" width="7.8" height="79.3"/>
			</g>
		</g>
	</g>
	<g class="st0">
		<path d="M331,318.2c2.3-0.2,4.8,0,7.1,0c2,0.1,2.3,0.4,2.8,2.3c2.6,11.2,5.4,22.4,7.9,33.6c2,9,3.8,18.1,5.7,27.1
			c0.3,1.3,0.7,2.6,1,4c0.4,2,0,2.7-2.1,2.9c-3.1,0.2-6.2,0.2-9.3,0c-1-0.1-2-0.2-3-0.3c-1.3-0.1-2-0.7-2.2-2
			c-0.2-0.9-0.5-1.8-0.7-2.6c-0.3-0.9-0.9-1.4-1.8-1.4c-3.6-0.1-7.1-0.1-10.7-0.2c-1,0-1.5,0.6-1.7,1.5c-0.3,1.1-0.6,2.3-0.8,3.5
			c-0.3,1.1-1,1.7-2.2,1.7c-4.2,0.2-8.4,0.7-12.6,0.2c-2.1-0.3-2.6-0.8-2.1-2.8c2.6-10.2,4.5-20.5,6.7-30.8c2.1-10,4.5-20,7-29.9
			c0.3-1.3,0.6-2.7,0.9-4c0.5-2.4,0.8-2.7,3.2-2.8c2.2-0.1,4.4,0.2,6.6,0C330.9,318.2,330.9,318.2,331,318.2z M330.5,363.9
			c0.7,0,0.9,0,1.1,0c1.3-0.1,1.6-0.4,1.5-1.7c-0.2-2.2-0.7-4.3-1.4-6.3c-0.1-0.2-0.4-0.4-0.6-0.4c-0.3-0.1-0.5,0.2-0.6,0.4
			c-0.8,2.2-1.2,4.5-1.5,6.9c-0.1,0.6,0.3,1,0.9,1.1C330.3,363.9,330.7,363.9,330.5,363.9z"/>
		<path d="M393.6,353.2c0-3.2,0-6.4-0.1-9.6c-0.1-3.9-0.1-7.9-0.1-11.8c0-2.8,0.1-5.7,0.2-8.5c0.1-1.9,0.6-2.4,2.5-2.5
			c0.5,0,0.9,0,1.4,0c6.4,0,12.8,0,19.2-0.2c5.1-0.1,9.5,1.3,13.5,4.5c1.9,1.5,3.3,3.4,4.3,5.6c1.3,2.6,2.1,5.4,2.1,8.4
			c0,2.8,0.1,5.6-0.5,8.5c-0.8,3.6-2.3,6.9-4.2,10.1c-0.9,1.4-2.2,2.5-3.6,3.4c-3.4,2.1-7.1,3.3-11,3.9c-2.4,0.3-4.9,0.6-7.4,0.7
			c-1.6,0-1.9,0.4-2.1,2c-0.1,0.8-0.1,1.6-0.2,2.5c-0.1,4.4-0.1,8.8,0.2,13.2c0,0.4,0.1,0.7,0.1,1.1c0,1-0.3,1.4-1.2,1.5
			c-0.7,0.1-1.4,0.3-2.2,0.3c-2.6,0.1-5.3,0.2-8,0.1c-2.3-0.1-2.9-0.7-2.9-3c-0.1-4.8,0-9.5,0-14.3
			C393.5,363.6,393.6,358.4,393.6,353.2z M408.2,342c0,0.7,0.1,1.4,0.1,2c0,1.2-0.2,2.9,0.8,3.7c1.4,1,3.3,0.4,5.1,0.4
			c0.7,0,1.4-0.3,2.1-0.6c1.2-0.5,2-1.3,2.3-2.6c0.5-1.8,0.4-3.6-0.5-5.3c-0.8-1.5-2.1-2.5-3.9-2.8c-1.4-0.2-2.9-0.1-4.4,0
			c-1,0-1.4,0.5-1.5,1.6C408.2,339.6,408.2,340.8,408.2,342z"/>
		<path d="M443.8,352c-0.6-5.8-0.1-13.3-0.3-20.8c-0.1-3.5-0.1-6.9,0.4-10.4c0.2-1.8,0.6-2.3,2.4-2.3c2.8,0,5.6-0.3,8.5-0.1
			c2.8,0.2,5.6-0.1,8.5-0.2c2.3-0.1,4.6,0,6.9-0.1c7.8-0.2,16.6,5.6,18.9,14c1.3,4.9,1.5,9.7,0.6,14.6c-0.6,3.3-1.8,6.3-3.4,9.2
			c-1.1,2-2.1,4-3.3,6c-0.8,1.3-0.7,2.3,0,3.6c3,5.7,5.8,11.4,8.7,17.1c0.7,1.4,1.4,2.8,2,4.2c0.4,1,0.1,1.5-1,1.7
			c-0.4,0.1-0.7,0.1-1.1,0.1c-4.2,0.2-8.4,0.1-12.6,0.1c-1.9,0-3-0.7-3.6-2.6c-1.9-5.7-4.8-11.1-7.5-16.4c-0.2-0.4-0.4-0.8-0.6-1.2
			c-0.6-1.3-1.6-1.9-3-1.8c-1.2,0.1-2.4,0-3.6,0.1c-0.8,0.1-1.3,0.6-1.4,1.4c-0.1,0.7-0.1,1.5-0.1,2.2c0,4.8,0,9.5,0,14.3
			c0,0.7,0,1.5,0,2.2c-0.1,1.3-0.4,1.6-1.6,1.8c-0.1,0-0.2,0-0.3,0c-3.7,0.1-7.3,0.3-11,0.1c-1.7-0.1-2-0.4-2.3-2.1
			c-0.3-1.7-0.3-3.5-0.3-5.2c0.1-4.7,0.2-9.3,0.2-14C443.8,362.8,443.8,358.2,443.8,352z M459.6,341.7c0,1.3-0.1,3,0.3,4.7
			c0.2,0.8,0.6,1.3,1.5,1.3c1.6,0,3.3,0.1,4.9-0.1c1.5-0.1,2.9-0.7,3.8-2c1.9-2.9,1-8.8-3.9-9.9c-1.6-0.4-3.3-0.4-4.9-0.1
			c-1.3,0.2-1.6,0.5-1.7,1.8C459.5,338.7,459.6,340,459.6,341.7z"/>
		<path d="M545.6,353.4c0,2.5,0,4.9,0,7.4c-0.1,5.9-1.6,11.5-4.6,16.5c-4,6.8-9.8,10.9-18,11.1c-2.3,0.1-4.6-0.1-6.8-0.6
			c-3.2-0.7-6-2.1-8.4-4.4c-4.1-4.1-7.2-8.7-8.8-14.3c-0.9-3-1.4-6.1-1.4-9.2c0-4,0-8,0-12.1c0-6.8,1.7-13.2,5.4-19
			c3.3-5.2,7.7-9.1,14-10.1c8.5-1.4,15.9,0.5,21.9,7.1c2.6,2.8,3.9,6.1,5,9.7c1.5,5,2,10.2,1.8,15.4
			C545.6,351.8,545.6,352.6,545.6,353.4z M529.3,354.4c0-2.2,0.1-4.4,0-6.6c-0.1-1.5-0.2-2.9-0.5-4.4c-0.4-2.5-1-4.8-2.7-6.8
			c-2.5-2.9-6-3-8.5-0.1c-1.7,1.9-2.4,4.3-2.8,6.8c-0.8,6.7-0.8,13.5-0.1,20.2c0.2,1.7,0.6,3.3,1.4,4.7c1.2,2.3,3,4,5.8,4
			c2.8,0,4.5-1.8,5.7-4.1c0.7-1.4,1.1-2.9,1.3-4.4C529.4,360.6,529.3,357.5,529.3,354.4z"/>
		<path d="M587.4,318.5c4.3,0,9.4,0,14.4,0c1.4,0,2.7,0,4.1,0.1c1.7,0.1,2.2,0.5,2.2,2.1c0.1,3.3,0.1,6.6,0,9.9
			c0,2.1-0.5,2.4-2.7,2.5c-2.6,0.1-5.1,0.3-7.7,0.5c-1.3,0.1-1.6,0.4-1.7,1.7c-0.1,0.7,0,1.5,0,2.2c0,4.8,0,9.5,0,14.3
			c0,5.1-0.3,10.2-1.1,15.3c-0.9,5.9-3.4,11.1-7.6,15.5c-2,2.1-4.2,4-7.1,5c-2,0.7-4.1,1-6.2,1.1c-2.7,0.1-5.3,0-7.9-0.7
			c-3-0.8-5.5-2.2-7.7-4.5c-2.7-2.8-4.8-6-6.6-9.4c-0.6-1.1-1-2.4-1.4-3.6c-0.3-0.9,0.1-1.4,0.9-1.7c0.3-0.1,0.7-0.2,1.1-0.2
			c4.2-0.2,8.4-0.4,12.6-0.6c0.8,0,1.4,0.2,2,0.8c0.4,0.5,0.9,0.9,1.4,1.3c2.8,2.2,6.3,1.8,8.6-0.9c0.8-0.9,1.4-2,1.7-3.1
			c0.3-1.4,0.7-2.8,0.7-4.3c0-8.1,0.2-16.3-0.1-24.4c-0.1-3.5-0.5-3.9-4-4c-1.9-0.1-3.8,0-5.8-0.1c-0.7,0-1.5,0-2.2-0.1
			c-1.2-0.2-1.7-0.5-1.7-1.7c-0.2-3.7-0.3-7.5-0.3-11.2c0-1.2,0.5-1.6,1.7-1.7c1.2-0.1,2.4-0.1,3.6-0.1
			C576,318.3,581.4,318.4,587.4,318.5z"/>
		<path d="M636.8,318.2c4.7-0.3,9.3-0.2,14-0.1c2,0,4-0.1,6,0c2,0,2.3,0.3,2.3,2.2c0,4.5,0,9,0,13.4c0,1.8-0.4,2.1-2.1,2.1
			c-4.6,0.1-9.1,0-13.7,0.1c-2.6,0-5.1,0.1-7.7,0.1c-0.6,0-1.3,0.1-1.9,0.2c-0.8,0.1-1.3,0.7-1.4,1.5c-0.2,2.3-0.2,4.6,0.1,6.9
			c0.1,1,0.5,1.4,1.6,1.5c2,0.1,4,0.1,6,0.1c1.4,0,2.7,0,4.1,0c1.3,0.1,1.7,0.5,1.9,1.9c0,0.2,0,0.4,0,0.5c-0.1,3.5-0.1,7-0.2,10.4
			c0,1-0.5,1.5-1.5,1.7c-0.4,0.1-0.9,0.2-1.3,0.3c-2.8,0.2-5.6,0.4-8.5,0.6c-0.4,0-0.7,0-1.1,0.1c-1,0.1-1.4,0.4-1.4,1.3
			c0,2.2,0,4.4,0.1,6.6c0,1.1,0.4,1.5,1.5,1.6c0.6,0.1,1.3,0.1,1.9,0.1c3.6,0,7.1-0.1,10.7-0.4c3.7-0.3,7.5-0.2,11.2-0.2
			c1.5,0,2,0.4,2,2c0.1,4.5,0.1,9,0,13.4c0,1.4-0.4,1.7-1.8,1.9c-0.4,0-0.7,0.1-1.1,0c-6.9-0.2-13.7,0.7-20.6,0.2
			c-6.6-0.5-13.2-0.3-19.7-0.6c-1.6-0.1-1.9-0.3-1.9-2c-0.1-3.4-0.3-6.8-0.1-10.1c0.3-5.2-0.4-10.4-0.2-15.6
			c0.3-9.9,0.3-19.7,0.4-29.6c0-2.8,0-5.7,0-8.5c0-0.6,0-1.3,0.1-1.9c0.1-0.9,0.5-1.2,1.4-1.4c0.3,0,0.5,0,0.8,0
			c3.6-0.1,7.1-0.5,10.7-0.5C630.6,318.3,633.7,318.2,636.8,318.2z"/>
		<path d="M666.5,353.4c0-2.7,0-5.3,0-8c0-2.3,0.4-4.5,1-6.8c1.3-5.5,4.4-10,7.9-14.2c3.7-4.4,8.6-6.4,14.3-6.4c2.2,0,4.4,0,6.5,0.4
			c6.9,1.4,13.4,6.8,15.9,13.4c0.3,0.9,0.7,1.7,0.9,2.6c0.4,1.4,0.2,2-1.2,2.6c-3.5,1.4-6.8,3-10.5,4c-1.7,0.4-1.9,0.4-2.9-1.2
			c-0.9-1.5-1.8-2.9-3.2-4.1c-2.9-2.3-6-2.1-8.5,0.7c-1.3,1.5-2,3.3-2.4,5.1c-0.3,1.1-0.5,2.2-0.5,3.2c-0.1,4.7-0.8,9.3-0.2,14
			c0.1,1,0.1,2,0.1,3c0,2.1,0.6,4.2,1.3,6.1c0.1,0.2,0.1,0.3,0.2,0.5c2.4,4.6,7,5.7,10.7,1.8c1-1.1,1.8-2.3,2.5-3.6
			c0.6-1.1,0.8-1.2,2-0.9c1.1,0.2,2.1,0.5,3.2,0.9c2.6,1,5.1,2,7.6,3.1c1.7,0.7,1.9,1.3,1.4,3c-1.4,4.9-4.2,8.9-8.3,11.9
			c-3.5,2.5-7.3,4-11.7,4.1c-2.9,0.1-5.9,0.1-8.7-0.7c-2.8-0.8-5.2-2.2-7.3-4.2c-3-3-5.3-6.5-7.3-10.2c-1.3-2.3-1.8-4.9-2.3-7.6
			C666.2,361.8,666.5,357.6,666.5,353.4z"/>
		<path d="M732.7,362.2c0-6-0.1-12.1-0.1-18.1c0-2.6-0.2-5.1-0.4-7.7c-0.1-1.4-0.4-1.8-1.8-1.8c-2.3-0.1-4.6-0.1-6.9-0.1
			c-4.1,0-4.1-0.1-4.2-4.1c0-2.7-0.1-5.5-0.2-8.2c0-0.4,0-0.7,0-1.1c0.1-1.1,0.5-1.5,1.5-1.6c0.6-0.1,1.3-0.1,1.9-0.1
			c5.6,0,11.2,0.1,16.7,0.1c5.7,0,11.3,0,17,0.1c1.5,0,3.1,0.1,4.6,0.3c1.2,0.1,1.6,0.5,1.6,1.8c0.1,3.7,0.3,7.3,0,11
			c-0.1,1.4-0.5,1.7-1.9,1.8c-2.5,0.1-4.9,0.1-7.4,0.2c-0.5,0-1.1,0-1.6,0c-2,0.2-2.4,0.4-2.5,2.5c-0.1,2.4-0.1,4.8,0,7.1
			c0.3,5.4,0.3,10.8,0,16.2c-0.1,1.3-0.1,2.6,0,3.8c0.2,2.3,0.2,4.6,0,6.9c-0.2,3.7-0.3,7.3,0,11c0.1,1,0.1,2,0,3
			c-0.1,1.5-0.5,1.9-2,2.1c-0.7,0.1-1.5,0-2.2,0.1c-2.9,0-5.9,0.1-8.8,0.1c-0.5,0-1.1,0-1.6-0.1c-1.2-0.2-1.6-0.6-1.8-1.7
			c-0.1-0.8-0.1-1.6-0.1-2.5C732.7,376.1,732.7,369.2,732.7,362.2z"/>
		<path d="M800.6,353.1c0-6.9-0.1-13.7-0.2-20.6c-0.1-3.9-0.2-7.9,0.4-11.8c0.3-1.8,0.6-2.3,2.4-2.3c2.8,0,5.6-0.3,8.5-0.1
			c2.8,0.2,5.7-0.1,8.5-0.2c2.2-0.1,4.4,0,6.6-0.1c7.8-0.2,16.7,5.6,18.9,14c1.7,6.5,1.5,12.8-0.7,19.1c-0.5,1.6-0.6,2.9,0,4.5
			c1.1,2.7,1.6,5.6,1.7,8.6c0.1,3.8,0.1,7.7-1.3,11.4c-2.7,6.9-7.7,10.9-14.8,12.5c-3.4,0.8-6.9,0.6-10.4,0.3
			c-3.9-0.3-7.9-0.2-11.8,0.1c-1.9,0.1-3.8,0-5.7-0.2c-1.4-0.1-1.7-0.5-1.9-1.9c-0.6-4-0.6-8-0.4-12c0.2-3.6,0.2-7.1,0.2-10.7
			C800.7,360.1,800.6,356.6,800.6,353.1z M816.4,365.4C816.4,365.4,816.5,365.4,816.4,365.4c0.1,1.3,0,2.6,0.1,3.8
			c0.1,1.3,0.5,1.8,1.8,1.9c1.1,0.1,2.2,0.1,3.3,0.1c5.2-0.2,6.8-5,6-8.2c-0.4-1.8-1.5-2.9-3.2-3.4c-1.9-0.6-3.8-0.6-5.7-0.5
			c-1.5,0.1-1.9,0.5-2.1,2C816.5,362.5,816.5,364,816.4,365.4z M816.5,341.3c0,1.2,0,2.4,0.1,3.5c0,0.6,0.2,1.3,0.3,1.9
			c0.1,0.6,0.5,1,1.1,1c2.4,0.2,4.7,0.3,7-0.7c0.9-0.4,1.6-0.9,2-1.7c1.6-3.3,0.5-8.1-3.6-9.5c-1.8-0.6-3.8-0.5-5.7-0.2
			c-0.8,0.1-1.3,0.7-1.3,1.5C816.5,338.5,816.5,339.9,816.5,341.3z"/>
		<path d="M864.7,370.2c-0.1-6.1-0.2-12.2-0.6-18.4c-0.1-1.3-0.4-2.5-0.9-3.7c-2-4.8-4.3-9.5-6.4-14.2c-2-4.4-3.8-8.9-5.6-13.4
			c-0.2-0.4-0.3-0.9-0.4-1.3c-0.1-0.5,0.1-0.9,0.6-1c0.3-0.1,0.5-0.1,0.8-0.1c4-0.1,8-0.3,12.1-0.3c4.1,0,4.3,0.2,5.8,3.9
			c0.8,2,1.7,4,2.7,6c0.2,0.4,0.4,0.9,1,0.8c0.5,0,0.7-0.5,0.9-0.9c1-2.3,2.1-4.7,3.1-7c0.3-0.6,0.4-1.2,0.7-1.8
			c0.5-1.1,1.3-1.7,2.6-1.7c4.9,0,9.9,0,14.8,0.1c0.8,0,1.1,0.5,0.8,1.3c-0.1,0.3-0.2,0.7-0.4,1c-2.6,6.2-4.9,12.6-7.9,18.7
			c-1.6,3.2-2.9,6.5-4.3,9.8c-0.2,0.6-0.5,1.2-0.6,1.8c-0.5,3.7-1,7.4-1,11.2c-0.1,8.5-0.1,17-0.2,25.5c0,0.3,0,0.5,0,0.8
			c-0.1,1.4-0.4,1.8-1.7,2c-1.3,0.2-2.5,0.3-3.8,0.4c-2.8,0.1-5.7,0-8.5,0c-0.5,0-1.1-0.1-1.6-0.2c-1.4-0.3-1.8-0.9-1.9-2.3
			c0-0.3,0-0.6,0-0.8c0.5-4.4,0.2-8.8,0-13.1C864.7,372.2,864.7,371.2,864.7,370.2z"/>
		<path d="M960.9,388.2c-5.6,0.2-10-1-13.9-3.6c-4.2-2.8-8-6.1-11.6-9.6c-0.2-0.2-0.4-0.4-0.6-0.6c-0.7-0.8-0.7-1.4-0.1-2.2
			c0.4-0.6,0.9-1.1,1.4-1.7c2-2.2,4-4.3,6-6.4c0.3-0.3,0.6-0.7,1-1c0.8-0.7,1.3-0.8,2.2-0.2c0.9,0.6,1.8,1.3,2.6,2
			c2.8,2.2,5.5,4.5,8.7,6.1c1.1,0.5,2.1,1,3.4,1.1c2.2,0.1,3.6-1.7,2.8-3.8c-0.3-0.9-0.9-1.6-1.5-2.3c-1.6-1.8-3.4-3.3-5.5-4.5
			c-3.8-2.2-7.4-4.7-10.9-7.4c-5.5-4.2-8-9.9-8-16.7c0-4,1.6-7.5,4.4-10.4c4-4.1,8.7-6.8,14.4-8c7-1.4,13.3-0.2,18.8,4.3
			c3.3,2.7,6.6,5.5,9.9,8.3c0.2,0.2,0.4,0.4,0.6,0.6c0.9,1,1,1.6,0,2.6c-1.6,1.7-3.3,3.4-5,5.1c-1.4,1.4-2.7,2.7-4.1,4
			c-1.4,1.3-1.6,1.3-3,0.2c-2.5-2-5.1-3.9-7.7-5.7c-1.2-0.8-2.5-1.5-3.8-2.1c-2.4-1-4.3,0.7-5,2.5c-0.4,1-0.1,2,0.5,2.8
			c1.4,1.9,3,3.5,5.1,4.4c4,1.8,7.7,4.2,11.2,6.9c2.1,1.6,3.9,3.6,5.3,5.9c3.1,5,3.7,10.5,2.2,16.1c-1.3,4.9-4.8,8.1-9.2,10.4
			c-1.2,0.6-2.5,1.1-3.8,1.6C965.3,388,962.7,388.3,960.9,388.2z"/>
		<path d="M991.8,353.2c0-3.2,0-6.4-0.1-9.6c-0.1-3.9-0.1-7.9-0.1-11.8c0-2.8,0.1-5.7,0.2-8.5c0.1-1.9,0.6-2.4,2.5-2.5
			c0.5,0,0.9,0,1.4,0c6.4,0,12.8,0,19.2-0.2c5.1-0.1,9.5,1.3,13.5,4.5c1.9,1.5,3.3,3.4,4.3,5.6c1.3,2.6,2.1,5.4,2.1,8.4
			c0,2.8,0.1,5.6-0.5,8.5c-0.8,3.6-2.3,6.9-4.2,10.1c-0.9,1.4-2.2,2.5-3.6,3.4c-3.4,2.1-7.1,3.3-11,3.9c-2.4,0.3-4.9,0.6-7.4,0.7
			c-1.6,0-1.9,0.4-2.1,2c-0.1,0.8-0.1,1.6-0.2,2.5c-0.1,4.4-0.1,8.8,0.2,13.2c0,0.4,0.1,0.7,0.1,1.1c0,1-0.3,1.4-1.2,1.5
			c-0.7,0.1-1.4,0.3-2.2,0.3c-2.6,0.1-5.3,0.2-7.9,0.1c-2.3-0.1-2.9-0.7-2.9-3c-0.1-4.8,0-9.5,0-14.3
			C991.8,363.6,991.8,358.4,991.8,353.2z M1006.4,342c0,0.7,0.1,1.4,0.1,2c0,1.2-0.2,2.9,0.8,3.7c1.4,1,3.3,0.4,5.1,0.4
			c0.7,0,1.4-0.3,2.1-0.6c1.2-0.5,2-1.3,2.3-2.6c0.5-1.8,0.4-3.6-0.5-5.3c-0.8-1.5-2.1-2.5-3.9-2.8c-1.4-0.2-2.9-0.1-4.4,0
			c-1,0-1.4,0.5-1.5,1.6C1006.4,339.6,1006.4,340.8,1006.4,342z"/>
		<path d="M1063.4,318.2c4.7-0.3,9.3-0.2,14-0.1c2,0,4-0.1,6,0c2,0,2.3,0.3,2.3,2.2c0,4.5,0,9,0,13.4c0,1.8-0.4,2.1-2.1,2.1
			c-4.6,0.1-9.1,0-13.7,0.1c-2.6,0-5.1,0.1-7.7,0.1c-0.6,0-1.3,0.1-1.9,0.2c-0.8,0.1-1.3,0.7-1.4,1.5c-0.2,2.3-0.2,4.6,0.1,6.9
			c0.1,1,0.5,1.4,1.6,1.5c2,0.1,4,0.1,6,0.1c1.4,0,2.7,0,4.1,0c1.3,0.1,1.7,0.5,1.9,1.9c0,0.2,0,0.4,0,0.5c-0.1,3.5-0.1,7-0.2,10.4
			c0,1-0.5,1.5-1.5,1.7c-0.4,0.1-0.9,0.2-1.3,0.3c-2.8,0.2-5.6,0.4-8.5,0.6c-0.4,0-0.7,0-1.1,0.1c-1,0.1-1.4,0.4-1.4,1.3
			c0,2.2,0,4.4,0.1,6.6c0,1.1,0.4,1.5,1.5,1.6c0.6,0.1,1.3,0.1,1.9,0.1c3.6,0,7.1-0.1,10.7-0.4c3.7-0.3,7.5-0.2,11.2-0.2
			c1.5,0,2,0.4,2,2c0.1,4.5,0.1,9,0,13.4c0,1.4-0.4,1.7-1.8,1.9c-0.4,0-0.7,0.1-1.1,0c-6.9-0.2-13.7,0.7-20.6,0.2
			c-6.6-0.5-13.2-0.3-19.7-0.6c-1.6-0.1-1.9-0.3-1.9-2c-0.1-3.4-0.3-6.8-0.1-10.1c0.3-5.2-0.4-10.4-0.2-15.6
			c0.3-9.9,0.3-19.7,0.4-29.6c0-2.8,0-5.7,0-8.5c0-0.6,0-1.3,0.1-1.9c0.1-0.9,0.5-1.2,1.4-1.4c0.3,0,0.5,0,0.8,0
			c3.6-0.1,7.1-0.5,10.7-0.5C1057.1,318.3,1060.2,318.2,1063.4,318.2z"/>
		<path d="M1139.7,353.1c0,6.6-0.1,13.2-0.1,19.7c0,3.6-0.2,7.1-0.3,10.7c-0.1,1.9-0.4,2.2-2.2,2.4c-3.7,0.3-7.5,0.6-11.2,0.2
			c-1.9-0.2-3-1-3.6-2.7c-1.6-4.6-3.6-9-5.5-13.4c-1.2-2.8-2.4-5.5-3.6-8.3c-0.2-0.4-0.4-0.8-0.7-1.2c-0.1-0.1-0.3-0.2-0.5-0.2
			c-0.2,0-0.3,0.2-0.4,0.3c-0.4,0.7-0.2,1.4-0.2,2.2c-0.1,6.4-0.1,12.8-0.2,19.2c0,3.3,0,3.3-3.2,3.7c-3.1,0.4-6.2,0.2-9.3,0.2
			c-0.5,0-0.9-0.1-1.4-0.2c-1.2-0.3-1.6-0.7-1.7-1.8c0-0.5,0-1.1,0-1.6c0-5.1,0.2-10.2-0.1-15.4c-0.8-14.5-0.3-29.1-0.4-43.6
			c0-0.4,0-0.7,0-1.1c0.1-1.2,0.5-1.5,1.8-1.7c0.5,0,0.9,0,1.4,0c3.7,0,7.5,0.1,11.2,0c2,0,3.2,0.8,4,2.6c2.5,6.2,5.4,12.2,7.5,18.5
			c0.3,0.9,0.5,1.8,1.1,2.5c0.1,0.1,0.3,0.2,0.5,0.2c0.1,0,0.3-0.2,0.4-0.3c0.1-0.5,0.2-1.1,0.1-1.6c-0.2-6.3,0.6-12.6,0.3-18.9
			c0-0.4,0-0.7,0.1-1.1c0.1-0.7,0.6-1.2,1.3-1.2c1-0.1,2-0.1,3-0.1c3.2,0,6.4,0,9.6,0.1c1.9,0,2.2,0.4,2.3,2.3c0.1,4,0.1,8,0.1,12.1
			C1139.8,341.3,1139.8,347.2,1139.7,353.1z"/>
		<path d="M1147.6,353.4c0-2.7,0-5.3,0-8c0-2.3,0.4-4.5,1-6.8c1.3-5.5,4.4-10,7.9-14.2c3.7-4.4,8.6-6.4,14.3-6.4
			c2.2,0,4.4,0,6.5,0.4c6.9,1.4,13.4,6.8,15.9,13.4c0.3,0.9,0.7,1.7,0.9,2.6c0.4,1.4,0.2,2-1.2,2.6c-3.5,1.4-6.8,3-10.5,4
			c-1.7,0.4-1.9,0.4-2.9-1.2c-0.9-1.5-1.8-2.9-3.2-4.1c-2.9-2.3-6-2.1-8.5,0.7c-1.3,1.5-2,3.3-2.4,5.1c-0.3,1.1-0.5,2.2-0.5,3.2
			c-0.1,4.7-0.8,9.3-0.2,14c0.1,1,0.1,2,0.1,3c0,2.1,0.6,4.2,1.3,6.1c0.1,0.2,0.1,0.3,0.2,0.5c2.4,4.6,7,5.7,10.7,1.8
			c1-1.1,1.8-2.3,2.5-3.6c0.6-1.1,0.8-1.2,2-0.9c1.1,0.2,2.1,0.5,3.2,0.9c2.6,1,5.1,2,7.6,3.1c1.7,0.7,1.9,1.3,1.4,3
			c-1.4,4.9-4.2,8.9-8.3,11.9c-3.5,2.5-7.3,4-11.7,4.1c-2.9,0.1-5.9,0.1-8.7-0.7c-2.8-0.8-5.2-2.2-7.3-4.2c-3-3-5.3-6.5-7.3-10.2
			c-1.3-2.3-1.8-4.9-2.3-7.6C1147.4,361.8,1147.6,357.6,1147.6,353.4z"/>
		<path d="M1224.9,318.2c4.7-0.3,9.3-0.2,14-0.1c2,0,4-0.1,6,0c2,0,2.3,0.3,2.3,2.2c0,4.5,0,9,0,13.4c0,1.8-0.4,2.1-2.1,2.1
			c-4.6,0.1-9.1,0-13.7,0.1c-2.6,0-5.1,0.1-7.7,0.1c-0.6,0-1.3,0.1-1.9,0.2c-0.8,0.1-1.3,0.7-1.4,1.5c-0.2,2.3-0.2,4.6,0.1,6.9
			c0.1,1,0.5,1.4,1.6,1.5c2,0.1,4,0.1,6,0.1c1.4,0,2.7,0,4.1,0c1.3,0.1,1.7,0.5,1.9,1.9c0,0.2,0,0.4,0,0.5c-0.1,3.5-0.1,7-0.2,10.4
			c0,1-0.5,1.5-1.5,1.7c-0.4,0.1-0.9,0.2-1.3,0.3c-2.8,0.2-5.6,0.4-8.5,0.6c-0.4,0-0.7,0-1.1,0.1c-1,0.1-1.4,0.4-1.4,1.3
			c0,2.2,0,4.4,0.1,6.6c0,1.1,0.4,1.5,1.5,1.6c0.6,0.1,1.3,0.1,1.9,0.1c3.6,0,7.1-0.1,10.7-0.4c3.7-0.3,7.5-0.2,11.2-0.2
			c1.5,0,2,0.4,2,2c0.1,4.5,0.1,9,0,13.4c0,1.4-0.4,1.7-1.8,1.9c-0.4,0-0.7,0.1-1.1,0c-6.9-0.2-13.7,0.7-20.6,0.2
			c-6.6-0.5-13.2-0.3-19.7-0.6c-1.6-0.1-1.9-0.3-1.9-2c-0.1-3.4-0.3-6.8-0.1-10.1c0.3-5.2-0.4-10.4-0.2-15.6
			c0.3-9.9,0.3-19.7,0.4-29.6c0-2.8,0-5.7,0-8.5c0-0.6,0-1.3,0.1-1.9c0.1-0.9,0.5-1.2,1.4-1.4c0.3,0,0.5,0,0.8,0
			c3.6-0.1,7.1-0.5,10.7-0.5C1218.7,318.3,1221.8,318.2,1224.9,318.2z"/>
		<path d="M1256.9,352c-0.6-5.8-0.1-13.3-0.3-20.8c-0.1-3.5-0.1-6.9,0.4-10.4c0.2-1.8,0.6-2.3,2.4-2.3c2.8,0,5.6-0.3,8.5-0.1
			c2.8,0.2,5.6-0.1,8.5-0.2c2.3-0.1,4.6,0,6.9-0.1c7.8-0.2,16.6,5.6,18.9,14c1.3,4.9,1.5,9.7,0.6,14.6c-0.6,3.3-1.8,6.3-3.4,9.2
			c-1.1,2-2.1,4-3.3,6c-0.8,1.3-0.7,2.3,0,3.6c3,5.7,5.8,11.4,8.7,17.1c0.7,1.4,1.4,2.8,2,4.2c0.4,1,0.1,1.5-1,1.7
			c-0.4,0.1-0.7,0.1-1.1,0.1c-4.2,0.2-8.4,0.1-12.6,0.1c-1.9,0-3-0.7-3.6-2.6c-1.9-5.7-4.8-11.1-7.5-16.4c-0.2-0.4-0.4-0.8-0.6-1.2
			c-0.6-1.3-1.6-1.9-3-1.8c-1.2,0.1-2.4,0-3.6,0.1c-0.8,0.1-1.3,0.6-1.4,1.4c-0.1,0.7-0.1,1.5-0.1,2.2c0,4.8,0,9.5,0,14.3
			c0,0.7,0,1.5,0,2.2c-0.1,1.3-0.4,1.6-1.6,1.8c-0.1,0-0.2,0-0.3,0c-3.7,0.1-7.3,0.3-11,0.1c-1.7-0.1-2-0.4-2.3-2.1
			c-0.3-1.7-0.3-3.5-0.3-5.2c0.1-4.7,0.2-9.3,0.2-14C1257,362.8,1256.9,358.2,1256.9,352z M1272.7,341.7c0,1.3-0.1,3,0.3,4.7
			c0.2,0.8,0.6,1.3,1.5,1.3c1.6,0,3.3,0.1,4.9-0.1c1.5-0.1,2.9-0.7,3.8-2c1.9-2.9,1-8.8-3.9-9.9c-1.6-0.4-3.3-0.4-4.9-0.1
			c-1.3,0.2-1.6,0.5-1.7,1.8C1272.7,338.7,1272.7,340,1272.7,341.7z"/>
		<path d="M1389.7,353.3c0,6.9,0,13.9,0,20.8c0,3.4-0.2,6.8-0.3,10.1c0,0.2,0,0.4,0,0.5c-0.2,1.5-0.5,1.9-2.1,2
			c-3.2,0.1-6.4,0.1-9.6,0.2c-0.9,0-1.8,0-2.7-0.1c-1.1-0.1-1.6-0.6-1.7-1.7c0-0.3,0-0.5,0-0.8c0.5-4.6,0.2-9.1,0-13.7
			c-0.1-2.2-0.1-4.4-0.1-6.6c0-0.6-0.1-1.3-0.2-1.9c-0.1-0.6-0.5-0.9-1.1-1c-0.4-0.1-0.7-0.1-1.1-0.1c-2.1,0-4.2,0-6.3,0.1
			c-2.3,0.1-2.6,0.3-2.6,2.8c0,3.2,0,6.4,0,9.6c-0.1,3.7-0.2,7.3-0.3,11c0,0.3,0,0.6-0.1,0.8c-0.2,1-0.5,1.5-1.6,1.5
			c-4.2,0.2-8.4,0.4-12.6,0.1c-1.4-0.1-1.9-0.6-1.9-2.1c0-1.4,0.3-2.7,0.2-4.1c-0.4-9.2-0.3-18.5-0.7-27.7
			c-0.3-6.8-0.3-13.5,0.1-20.3c0.2-3.1,0.1-6.2,0.2-9.3c0-0.6-0.1-1.3,0-1.9c0.1-1.2,0.5-1.5,1.8-1.7c0.3,0,0.5,0,0.8,0
			c3.9,0,7.9,0,11.8,0c0.4,0,0.7,0,1.1,0.1c0.7,0.1,1.1,0.6,1.2,1.3c0.1,0.7,0.1,1.5,0.1,2.2c0,5.9,0.2,11.7,0,17.6
			c-0.1,3.3,0.1,3.4,3.3,3.5c2,0,4,0,6-0.1c1.3-0.1,1.6-0.5,1.6-1.8c0.1-6.4,0.3-12.8,0.3-19.2c0-3.5,0-3.5,3.5-3.5
			c3.4,0,6.8,0,10.1,0c0.5,0,0.9,0,1.4,0c1.2,0.1,1.5,0.5,1.6,1.7c0.1,0.7,0,1.5,0,2.2C1389.7,333.6,1389.7,343.5,1389.7,353.3
			C1389.7,353.3,1389.7,353.3,1389.7,353.3z"/>
		<path d="M1421.5,318.2c2.3-0.2,4.8,0,7.1,0c2,0.1,2.3,0.4,2.8,2.3c2.6,11.2,5.4,22.4,7.9,33.6c2,9,3.8,18.1,5.7,27.1
			c0.3,1.3,0.7,2.6,1,4c0.4,2,0,2.7-2.1,2.9c-3.1,0.2-6.2,0.2-9.3,0c-1-0.1-2-0.2-3-0.3c-1.3-0.1-2-0.7-2.2-2
			c-0.2-0.9-0.5-1.8-0.7-2.6c-0.3-0.9-0.9-1.4-1.8-1.4c-3.6-0.1-7.1-0.1-10.7-0.2c-1,0-1.5,0.6-1.7,1.5c-0.3,1.1-0.5,2.3-0.8,3.5
			c-0.3,1.1-1,1.7-2.2,1.7c-4.2,0.2-8.4,0.7-12.6,0.2c-2.1-0.3-2.6-0.8-2.1-2.8c2.6-10.2,4.5-20.5,6.7-30.8c2.1-10,4.5-20,7-29.9
			c0.3-1.3,0.6-2.7,0.9-4c0.5-2.4,0.8-2.7,3.2-2.8c2.2-0.1,4.4,0.2,6.6,0C1421.3,318.2,1421.4,318.2,1421.5,318.2z M1421,363.9
			c0.7,0,0.9,0,1.1,0c1.3-0.1,1.6-0.4,1.5-1.7c-0.2-2.2-0.7-4.3-1.4-6.3c-0.1-0.2-0.4-0.4-0.6-0.4c-0.3-0.1-0.5,0.2-0.6,0.4
			c-0.8,2.2-1.2,4.5-1.5,6.9c-0.1,0.6,0.3,1,0.9,1.1C1420.8,363.9,1421.1,363.9,1421,363.9z"/>
		<path d="M1467.1,342.1c0,2.4,0,4.8,0,7.2c0,3.9,0,7.8,0,11.8c0,1.1,0.1,2.2,0.3,3.3c0.3,1.8,1.3,3.2,2.7,4.3
			c2.7,2,6.1,1.8,8.4-0.7c1-1.1,1.7-2.4,2-3.8c0.3-1.5,0.6-3,0.6-4.6c0-7.7,0.1-15.4-0.1-23c-0.1-4.9,0.1-9.9,0.1-14.8
			c0-0.3,0-0.6,0-0.8c0.1-0.9,0.5-1.3,1.4-1.4c0.5-0.1,0.9,0,1.4,0c3.5,0,6.9,0,10.4,0c0.6,0,1.3,0,1.9,0.1c0.9,0.1,1.3,0.5,1.4,1.4
			c0.1,0.4,0,0.7,0,1.1c0,11.6,0.1,23.2-0.1,34.8c-0.1,4.1-0.4,8.2-1.6,12.2c-1.7,5.7-4.7,10.7-9.3,14.6c-1.2,1-2.5,1.8-4,2.4
			c-6,2.2-12,2.2-17.9-0.2c-2.9-1.1-5-3.3-6.9-5.7c-4.8-5.8-7.3-12.5-7.6-20.1c-0.4-7.7-0.5-15.3-0.4-23c0.1-5.1,0.5-10.2,0.3-15.3
			c-0.1-1.7,0.4-2.2,2.1-2.2c4.3,0,8.6,0,12.9,0c1.4,0,1.8,0.4,1.8,2.1c0,5.6,0.5,11.1,0.1,16.7
			C1467.2,339.5,1467.1,340.8,1467.1,342.1z"/>
		<path d="M1546.1,349c2.7,0.2,6.9,0.1,11.1,0c0.5,0,0.9,0,1.4,0c1.2,0.1,1.7,0.5,1.7,1.7c0.3,3.9,0.7,7.8,0.5,11.8
			c0,0.3,0,0.5,0,0.8c-0.1,1.4-0.5,1.7-1.9,1.9c-1.1,0.1-2.2,0.3-3.3,0.4c-2.1,0.2-2.4,0.2-2.9,2.9c-0.4,1.8-1,3.5-1.7,5.2
			c-2,5-5.3,8.9-9.9,11.7c-2.2,1.3-4.6,2.3-7.1,2.6c-3.7,0.5-7.3,0.5-10.9-0.5c-2.8-0.8-5.2-2.1-7.3-4.2c-6.5-6.6-10-14.5-10-23.9
			c0-4.2,0-8.4,0-12.6c0-3,0.5-6,1.3-8.9c1.4-5.1,4.4-9.4,7.9-13.3c1.9-2.1,4-3.7,6.7-4.7c3.3-1.2,6.7-1.7,10.2-1.3
			c0.4,0,0.7,0.1,1.1,0.2c6.4,0.4,11.1,3.8,15.1,8.5c1.9,2.2,2.8,4.9,3.6,7.6c0.4,1.3,0.2,1.8-1.1,2.3c-3.1,1.3-6.3,2.5-9.4,3.7
			c-0.4,0.2-0.9,0.2-1.3,0.3c-1.5,0.3-1.6,0.3-2.4-1.1c-0.9-1.6-1.9-3.1-3.4-4.3c-2.8-2.2-5.9-1.9-8.3,0.8c-1.7,1.9-2.4,4.1-2.7,6.5
			c-0.9,6.9-0.9,13.9-0.1,20.8c0.3,2.4,1.1,4.6,2.8,6.4c2.2,2.4,5.3,2.7,7.9,0.7c1.7-1.3,2.9-3,3.7-5c0.3-0.9,0-1.4-0.9-1.6
			c-1.4-0.3-2.9-0.2-4.4-0.2c-3.6,0-3.8-0.2-3.8-3.7c0-2.9,0-5.9,0-8.8c0-2.2,0.4-2.6,2.5-2.7C1535.4,348.9,1539.9,348.8,1546.1,349
			z"/>
		<path d="M1613.8,353.3c0,6.9,0,13.9,0,20.8c0,3.4-0.2,6.8-0.3,10.1c0,0.2,0,0.4,0,0.5c-0.2,1.5-0.5,1.9-2.1,2
			c-3.2,0.1-6.4,0.1-9.6,0.2c-0.9,0-1.8,0-2.7-0.1c-1.1-0.1-1.6-0.6-1.7-1.7c0-0.3,0-0.5,0-0.8c0.5-4.6,0.2-9.1,0-13.7
			c-0.1-2.2-0.1-4.4-0.1-6.6c0-0.6-0.1-1.3-0.2-1.9c-0.1-0.6-0.5-0.9-1.1-1c-0.4-0.1-0.7-0.1-1.1-0.1c-2.1,0-4.2,0-6.3,0.1
			c-2.3,0.1-2.6,0.3-2.6,2.8c0,3.2,0,6.4,0,9.6c-0.1,3.7-0.2,7.3-0.3,11c0,0.3,0,0.6-0.1,0.8c-0.2,1-0.5,1.5-1.6,1.5
			c-4.2,0.2-8.4,0.4-12.6,0.1c-1.4-0.1-1.9-0.6-1.9-2.1c0-1.4,0.3-2.7,0.2-4.1c-0.4-9.2-0.3-18.5-0.7-27.7
			c-0.3-6.8-0.3-13.5,0.1-20.3c0.2-3.1,0.1-6.2,0.2-9.3c0-0.6-0.1-1.3,0-1.9c0.1-1.2,0.5-1.5,1.8-1.7c0.3,0,0.5,0,0.8,0
			c3.9,0,7.9,0,11.8,0c0.4,0,0.7,0,1.1,0.1c0.7,0.1,1.1,0.6,1.2,1.3c0.1,0.7,0.1,1.5,0.1,2.2c0,5.9,0.2,11.7,0,17.6
			c-0.1,3.3,0.1,3.4,3.3,3.5c2,0,4,0,6-0.1c1.3-0.1,1.6-0.5,1.6-1.8c0.1-6.4,0.3-12.8,0.3-19.2c0-3.5,0-3.5,3.5-3.5
			c3.4,0,6.8,0,10.1,0c0.5,0,0.9,0,1.4,0c1.2,0.1,1.5,0.5,1.6,1.7c0.1,0.7,0,1.5,0,2.2C1613.8,333.6,1613.8,343.5,1613.8,353.3
			C1613.8,353.3,1613.8,353.3,1613.8,353.3z"/>
	</g>
</g>
<g>
	<g>
		<path d="M675.7,123.7c0-10.1,0-20.3,0-30.4c0-3.2,0.1-3.3,3.4-3.5c7.4-0.3,14.8-0.3,22.2-0.4c2.6,0,5.1,0.6,7.5,1.3
			c0.6,0.2,1.2,0.5,1.7,0.8c3.6,2.7,6.5,5.8,7.8,10.3c1.2,4.5,2.1,9.1,2.1,13.8c0,5.2,0,10.4,0,15.6c0,4.6-0.8,9.1-1.9,13.5
			c-1.1,4.7-4.1,8.1-7.9,10.8c-2,1.4-4.4,1.7-6.8,2c-0.8,0.1-1.6,0.1-2.5,0.1c-7.4,0-14.8-0.1-22.2-0.1c-0.5,0-0.9,0-1.4-0.1
			c-1.6-0.2-2-0.7-2.1-2.3c0-0.5,0-0.9,0-1.4C675.7,143.8,675.7,133.7,675.7,123.7z M690.8,123C690.8,123,690.8,123,690.8,123
			c0,4.7,0,9.5,0,14.2c0,0.7,0,1.5,0.1,2.2c0.2,1,0.6,1.4,1.6,1.5c1.6,0.1,3.3,0.1,4.9,0.1c3,0,5.5-1.9,6.1-4.8
			c0.4-1.6,0.7-3.2,0.7-4.9c0-5.4,0-10.8,0-16.2c0-1.7-0.4-3.3-1-4.8c-0.9-2.3-2.5-3.8-4.8-4.5c-1.5-0.4-3.1-0.5-4.6-0.5
			c-2.7,0.1-3.1,0.5-3.1,3.3C690.8,113.5,690.8,118.3,690.8,123z"/>
		<path d="M776.2,123.6c0,2.5,0,4.9,0,7.4c-0.1,5.9-1.6,11.5-4.6,16.5c-4,6.8-9.8,10.9-18,11.1c-2.3,0.1-4.6-0.1-6.8-0.6
			c-3.2-0.7-6-2.1-8.4-4.4c-4.1-4.1-7.2-8.7-8.8-14.3c-0.9-3-1.4-6.1-1.4-9.2c0-4,0-8,0-12.1c0-6.8,1.7-13.2,5.4-19
			c3.3-5.2,7.7-9.1,14-10.1c8.5-1.4,15.9,0.5,21.9,7.1c2.6,2.8,3.9,6.1,5,9.7c1.5,5,2,10.2,1.8,15.4
			C776.2,121.9,776.2,122.7,776.2,123.6z M759.9,124.5c0-2.2,0.1-4.4,0-6.6c-0.1-1.5-0.2-2.9-0.5-4.4c-0.4-2.5-1-4.8-2.7-6.8
			c-2.5-2.9-6-3-8.5-0.1c-1.7,1.9-2.4,4.3-2.8,6.8c-0.8,6.7-0.8,13.5-0.1,20.2c0.2,1.7,0.6,3.3,1.4,4.7c1.2,2.3,3,4,5.8,4
			c2.8,0,4.5-1.8,5.7-4.1c0.7-1.4,1.1-2.9,1.3-4.4C760,130.8,759.9,127.7,759.9,124.5z"/>
		<path d="M823.4,119.1c2.7,0.2,6.9,0.1,11.1,0c0.5,0,0.9,0,1.4,0c1.2,0.1,1.7,0.5,1.7,1.7c0.3,3.9,0.7,7.8,0.5,11.8
			c0,0.3,0,0.6,0,0.8c-0.1,1.4-0.5,1.7-1.9,1.9c-1.1,0.1-2.2,0.3-3.3,0.4c-2.1,0.2-2.4,0.2-2.9,2.9c-0.4,1.8-1,3.5-1.7,5.2
			c-2,5-5.3,8.9-9.9,11.7c-2.2,1.3-4.6,2.3-7.1,2.6c-3.7,0.5-7.3,0.5-10.9-0.5c-2.8-0.8-5.2-2.1-7.3-4.2c-6.5-6.6-10-14.5-10-23.9
			c0-4.2,0-8.4,0-12.6c0-3,0.5-6,1.3-8.9c1.4-5.1,4.4-9.4,7.9-13.3c1.9-2.1,4-3.7,6.7-4.7c3.3-1.2,6.7-1.7,10.2-1.3
			c0.4,0,0.7,0.1,1.1,0.2c6.4,0.4,11.1,3.8,15.1,8.5c1.9,2.2,2.8,4.9,3.6,7.6c0.4,1.3,0.2,1.8-1.1,2.3c-3.1,1.3-6.3,2.5-9.4,3.7
			c-0.4,0.2-0.9,0.2-1.3,0.3c-1.5,0.3-1.6,0.3-2.4-1.1c-0.9-1.6-1.9-3.1-3.4-4.3c-2.8-2.2-5.9-1.9-8.3,0.8c-1.7,1.9-2.4,4.1-2.7,6.5
			c-0.9,6.9-0.9,13.9-0.1,20.8c0.3,2.4,1.1,4.6,2.8,6.4c2.2,2.4,5.3,2.7,7.9,0.7c1.7-1.3,2.9-3,3.7-5c0.3-0.9,0-1.4-0.9-1.6
			c-1.4-0.3-2.9-0.2-4.4-0.2c-3.6,0-3.8-0.2-3.8-3.7c0-2.9,0-5.9,0-8.8c0-2.2,0.4-2.6,2.5-2.7C812.8,119.1,817.3,118.9,823.4,119.1z
			"/>
		<path d="M868.7,88.4c4.7-0.3,9.3-0.2,14-0.1c2,0,4-0.1,6,0c2,0,2.3,0.3,2.3,2.2c0,4.5,0,9,0,13.4c0,1.8-0.4,2.1-2.1,2.1
			c-4.6,0.1-9.1,0-13.7,0.1c-2.6,0-5.1,0.1-7.7,0.1c-0.6,0-1.3,0.1-1.9,0.2c-0.8,0.1-1.3,0.7-1.4,1.5c-0.2,2.3-0.2,4.6,0.1,6.9
			c0.1,1,0.5,1.4,1.6,1.5c2,0.1,4,0.1,6,0.1c1.4,0,2.7,0,4.1,0c1.3,0.1,1.7,0.5,1.9,1.9c0,0.2,0,0.4,0,0.5c-0.1,3.5-0.1,7-0.2,10.4
			c0,1-0.5,1.5-1.5,1.7c-0.4,0.1-0.9,0.2-1.3,0.3c-2.8,0.2-5.6,0.4-8.5,0.6c-0.4,0-0.7,0-1.1,0.1c-1,0.1-1.4,0.4-1.4,1.3
			c0,2.2,0,4.4,0.1,6.6c0,1.1,0.4,1.5,1.5,1.6c0.6,0.1,1.3,0.1,1.9,0.1c3.6,0,7.1-0.1,10.7-0.4c3.7-0.3,7.5-0.2,11.2-0.2
			c1.5,0,2,0.4,2,2c0.1,4.5,0.1,9,0,13.4c0,1.4-0.4,1.7-1.8,1.9c-0.4,0-0.7,0.1-1.1,0c-6.9-0.2-13.7,0.7-20.6,0.2
			c-6.6-0.5-13.2-0.3-19.7-0.6c-1.6-0.1-1.9-0.3-1.9-2c-0.1-3.4-0.3-6.8-0.1-10.1c0.3-5.2-0.4-10.4-0.2-15.6
			c0.3-9.9,0.3-19.7,0.4-29.6c0-2.8,0-5.7,0-8.5c0-0.6,0-1.3,0.1-1.9c0.1-0.9,0.5-1.2,1.4-1.4c0.3,0,0.5,0,0.8,0
			c3.6-0.1,7.1-0.5,10.7-0.5C862.5,88.5,865.6,88.4,868.7,88.4z"/>
		<path d="M942.7,132.4c0-6-0.1-12.1-0.1-18.1c0-2.6-0.2-5.1-0.4-7.7c-0.1-1.4-0.4-1.8-1.8-1.8c-2.3-0.1-4.6-0.1-6.9-0.1
			c-4.1,0-4.1-0.1-4.2-4.1c0-2.7-0.1-5.5-0.2-8.2c0-0.4,0-0.7,0-1.1c0.1-1.1,0.5-1.5,1.5-1.6c0.6-0.1,1.3-0.1,1.9-0.1
			c5.6,0,11.2,0.1,16.7,0.1c5.7,0,11.3,0,17,0.1c1.5,0,3.1,0.1,4.6,0.3c1.2,0.1,1.6,0.5,1.6,1.8c0.1,3.7,0.3,7.3,0,11
			c-0.1,1.4-0.5,1.7-1.9,1.8c-2.5,0.1-4.9,0.1-7.4,0.2c-0.5,0-1.1,0-1.6,0c-2,0.2-2.4,0.4-2.5,2.5c-0.1,2.4-0.1,4.8,0,7.1
			c0.3,5.4,0.3,10.8,0,16.2c-0.1,1.3-0.1,2.6,0,3.8c0.2,2.3,0.2,4.6,0,6.9c-0.2,3.7-0.3,7.3,0,11c0.1,1,0.1,2,0,3
			c-0.1,1.5-0.5,1.9-2,2.1c-0.7,0.1-1.5,0-2.2,0.1c-2.9,0-5.9,0.1-8.8,0.1c-0.5,0-1.1,0-1.6-0.1c-1.2-0.2-1.6-0.6-1.8-1.7
			c-0.1-0.8-0.1-1.6-0.1-2.5C942.8,146.3,942.7,139.3,942.7,132.4z"/>
		<path d="M980,122.1c-0.6-5.8-0.1-13.3-0.3-20.8c-0.1-3.5-0.1-6.9,0.4-10.4c0.2-1.9,0.6-2.3,2.4-2.3c2.8,0,5.6-0.3,8.5-0.1
			c2.8,0.2,5.6-0.1,8.5-0.2c2.3-0.1,4.6,0,6.9-0.1c7.8-0.2,16.6,5.6,18.9,14c1.3,4.9,1.5,9.7,0.6,14.6c-0.6,3.3-1.8,6.3-3.4,9.2
			c-1.1,2-2.1,4-3.3,6c-0.8,1.3-0.7,2.3,0,3.6c3,5.7,5.8,11.4,8.7,17.1c0.7,1.4,1.4,2.8,2,4.2c0.4,1,0.1,1.5-1,1.7
			c-0.4,0.1-0.7,0.1-1.1,0.1c-4.2,0.2-8.4,0.1-12.6,0.1c-1.9,0-3-0.7-3.6-2.6c-1.9-5.7-4.8-11.1-7.5-16.4c-0.2-0.4-0.4-0.8-0.6-1.2
			c-0.6-1.3-1.6-1.9-3-1.8c-1.2,0.1-2.4,0-3.6,0.1c-0.8,0.1-1.3,0.6-1.4,1.4c-0.1,0.7-0.1,1.5-0.1,2.2c0,4.8,0,9.5,0,14.3
			c0,0.7,0,1.5,0,2.2c-0.1,1.3-0.4,1.6-1.6,1.8c-0.1,0-0.2,0-0.3,0c-3.7,0.1-7.3,0.3-11,0.1c-1.7-0.1-2-0.4-2.3-2.1
			c-0.3-1.7-0.3-3.5-0.3-5.2c0.1-4.7,0.2-9.3,0.2-14C980,132.9,980,128.4,980,122.1z M995.8,111.8c0,1.3-0.1,3,0.3,4.7
			c0.2,0.8,0.6,1.3,1.5,1.3c1.6,0,3.3,0.1,4.9-0.1c1.5-0.1,2.9-0.7,3.8-2c1.9-2.9,1-8.8-3.9-9.9c-1.6-0.4-3.3-0.4-4.9-0.1
			c-1.3,0.2-1.6,0.5-1.7,1.8C995.7,108.8,995.8,110.1,995.8,111.8z"/>
		<path d="M1058.6,88.3c2.3-0.2,4.8,0,7.1,0c2,0.1,2.3,0.4,2.8,2.3c2.6,11.2,5.4,22.4,7.9,33.6c2,9,3.8,18.1,5.7,27.1
			c0.3,1.3,0.7,2.6,1,4c0.4,2,0,2.7-2.1,2.9c-3.1,0.2-6.2,0.2-9.3,0c-1-0.1-2-0.2-3-0.3c-1.3-0.1-2-0.7-2.2-2
			c-0.2-0.9-0.5-1.8-0.7-2.6c-0.3-0.9-0.9-1.4-1.8-1.4c-3.6-0.1-7.1-0.1-10.7-0.2c-1,0-1.5,0.6-1.7,1.5c-0.3,1.1-0.5,2.3-0.8,3.5
			c-0.3,1.1-1,1.7-2.2,1.7c-4.2,0.2-8.4,0.7-12.6,0.2c-2.1-0.3-2.6-0.8-2.1-2.8c2.6-10.2,4.5-20.5,6.7-30.8c2.1-10,4.5-20,7-29.9
			c0.3-1.3,0.6-2.7,0.9-4c0.5-2.4,0.8-2.7,3.2-2.8c2.2-0.1,4.4,0.2,6.6,0C1058.5,88.3,1058.6,88.3,1058.6,88.3z M1058.1,134.1
			c0.7,0,0.9,0,1.1,0c1.3-0.1,1.6-0.4,1.5-1.7c-0.2-2.2-0.7-4.3-1.4-6.3c-0.1-0.2-0.4-0.4-0.6-0.4c-0.3-0.1-0.5,0.2-0.6,0.4
			c-0.8,2.2-1.2,4.5-1.5,6.9c-0.1,0.6,0.3,1,0.9,1.1C1057.9,134.1,1058.3,134.1,1058.1,134.1z"/>
		<path d="M1087.2,123.5c0-2.7,0-5.3,0-8c0-2.3,0.4-4.5,1-6.8c1.3-5.5,4.4-10,7.9-14.2c3.7-4.4,8.6-6.4,14.3-6.4
			c2.2,0,4.4,0,6.5,0.4c6.9,1.4,13.4,6.8,15.9,13.4c0.3,0.9,0.7,1.7,0.9,2.6c0.4,1.4,0.2,2-1.2,2.6c-3.5,1.4-6.8,3-10.5,4
			c-1.7,0.4-1.9,0.4-2.9-1.2c-0.9-1.5-1.8-2.9-3.2-4.1c-2.9-2.3-6-2.1-8.5,0.7c-1.3,1.5-2,3.3-2.4,5.1c-0.3,1.1-0.5,2.2-0.5,3.2
			c-0.1,4.7-0.8,9.3-0.2,14c0.1,1,0.1,2,0.1,3c0,2.1,0.6,4.1,1.3,6.1c0.1,0.2,0.1,0.3,0.2,0.5c2.4,4.6,7,5.7,10.7,1.8
			c1-1.1,1.8-2.3,2.5-3.6c0.6-1.1,0.8-1.2,2-0.9c1.1,0.2,2.1,0.5,3.2,0.9c2.6,1,5.1,2,7.6,3.1c1.7,0.7,1.9,1.3,1.4,3
			c-1.4,4.9-4.2,8.9-8.3,11.9c-3.5,2.6-7.3,4-11.7,4.1c-2.9,0.1-5.9,0.1-8.7-0.7c-2.8-0.8-5.2-2.2-7.3-4.2c-3-3-5.3-6.5-7.3-10.2
			c-1.3-2.3-1.8-4.9-2.3-7.6C1087,131.9,1087.2,127.7,1087.2,123.5z"/>
		<path d="M1159.5,100.6c0,2.5,0,4.9,0,7.4c0,1,0,2,0,3c0,0.2,0.2,0.5,0.4,0.6c0.3,0.2,0.6-0.1,0.7-0.3c0.4-0.7,0.8-1.4,1.1-2.2
			c2.4-5.4,5.2-10.7,8.1-15.9c0.6-1,1.1-2.1,1.7-3.2c0.5-0.9,1.2-1.4,2.2-1.4c1.2,0,2.4-0.1,3.6-0.1c3.6,0,7.1,0,10.7,0.1
			c1.1,0,1.3,0.5,0.9,1.4c-1,2.1-1.9,4.4-3.2,6.4c-2.1,3.4-3.9,7-5.7,10.6c-2.1,4.1-4.1,8.2-6.4,12.1c-1.9,3.4-2,3.5-0.1,6.8
			c2.9,5.1,5.4,10.4,7.9,15.7c2.1,4.5,4.9,8.6,6.8,13.2c0.1,0.2,0.2,0.3,0.2,0.5c1,2.2,0.9,2.4-1.6,2.4c-2,0-4,0-6,0.1
			c-2.1,0-4.2,0-6.3,0c-1.5,0-2.5-0.6-3.2-2c-2-4.1-4.2-8.1-6.3-12.2c-1.1-2.1-2-4.3-3-6.4c-0.4-0.8-0.8-1.6-1.2-2.4
			c-0.1-0.3-0.4-0.4-0.7-0.3c-0.2,0.1-0.4,0.4-0.4,0.6c-0.1,0.7-0.1,1.5-0.1,2.2c0,5.9-0.1,11.7-0.1,17.6c0,3.2-0.1,3.3-3.4,3.4
			c-3.4,0.1-6.8,0.2-10.1,0.1c-0.6,0-1.3-0.1-1.9-0.1c-0.8-0.1-1.3-0.6-1.5-1.4c-0.1-0.5-0.1-1.1-0.1-1.6c0.5-3.1,0.2-6.2,0.2-9.3
			c-0.1-4.8-0.2-9.5-0.3-14.3c-0.1-2.9-0.3-5.8-0.3-8.8c0-6.3-0.1-12.6,0-18.9c0.1-3.7,0.3-7.5,0.2-11.2c0-0.5,0-0.9,0-1.4
			c0-2,0.4-2.5,2.4-2.5c4.4,0,8.8,0,13.2,0.1c1.3,0,1.7,0.5,1.7,1.9C1159.5,94,1159.5,97.3,1159.5,100.6z"/>
		<path d="M1194.3,122.1c-0.6-5.8-0.1-13.3-0.3-20.8c-0.1-3.5-0.1-6.9,0.4-10.4c0.2-1.9,0.6-2.3,2.4-2.3c2.8,0,5.6-0.3,8.5-0.1
			c2.8,0.2,5.6-0.1,8.5-0.2c2.3-0.1,4.6,0,6.9-0.1c7.8-0.2,16.6,5.6,18.9,14c1.3,4.9,1.5,9.7,0.6,14.6c-0.6,3.3-1.8,6.3-3.4,9.2
			c-1.1,2-2.1,4-3.3,6c-0.8,1.3-0.7,2.3,0,3.6c3,5.7,5.8,11.4,8.7,17.1c0.7,1.4,1.4,2.8,2,4.2c0.4,1,0.1,1.5-1,1.7
			c-0.4,0.1-0.7,0.1-1.1,0.1c-4.2,0.2-8.4,0.1-12.6,0.1c-1.9,0-3-0.7-3.6-2.6c-1.9-5.7-4.8-11.1-7.5-16.4c-0.2-0.4-0.4-0.8-0.6-1.2
			c-0.6-1.3-1.6-1.9-3-1.8c-1.2,0.1-2.4,0-3.6,0.1c-0.8,0.1-1.3,0.6-1.4,1.4c-0.1,0.7-0.1,1.5-0.1,2.2c0,4.8,0,9.5,0,14.3
			c0,0.7,0,1.5,0,2.2c-0.1,1.3-0.4,1.6-1.6,1.8c-0.1,0-0.2,0-0.3,0c-3.7,0.1-7.3,0.3-11,0.1c-1.7-0.1-2-0.4-2.3-2.1
			c-0.3-1.7-0.3-3.5-0.3-5.2c0.1-4.7,0.2-9.3,0.2-14C1194.3,132.9,1194.3,128.4,1194.3,122.1z M1210.1,111.8c0,1.3-0.1,3,0.3,4.7
			c0.2,0.8,0.6,1.3,1.5,1.3c1.6,0,3.3,0.1,4.9-0.1c1.5-0.1,2.9-0.7,3.8-2c1.9-2.9,1-8.8-3.9-9.9c-1.6-0.4-3.3-0.4-4.9-0.1
			c-1.3,0.2-1.6,0.5-1.7,1.8C1210,108.8,1210.1,110.1,1210.1,111.8z"/>
	</g>
</g>
<g>
	<path d="M724.3,192.1c0.5,1.3,0.5,1.8-1,1.7c-0.9,0-1.4-0.1-1.7-1c-0.5-1.2-0.9-2.5-1.2-3.8c-1-4.3-1.3-9.3,0.1-13.5
		c0.3-0.9,0.5-1.8,0.9-2.6c0.6-1.1,1.2-1.1,2.4-1.1c0.4,0,1-0.1,1.1,0.4c0,0.2-0.1,0.4-0.2,0.6c-0.2,0.5-0.5,1.1-0.7,1.6
		c-1.1,2.9-1.6,6-1.5,9.2C722.5,186.5,723.2,189.4,724.3,192.1z"/>
	<path d="M734.8,193.7c-1.6,0.1-2.8-0.3-4-1c-1.2-0.8-2.3-1.7-3.3-2.7c-0.1-0.1-0.1-0.1-0.2-0.2c-0.2-0.2-0.2-0.4,0-0.6
		c0.1-0.2,0.3-0.3,0.4-0.5c0.6-0.6,1.1-1.2,1.7-1.8c0.1-0.1,0.2-0.2,0.3-0.3c0.2-0.2,0.4-0.2,0.6,0c0.3,0.2,0.5,0.4,0.7,0.6
		c0.8,0.6,1.6,1.3,2.5,1.7c0.3,0.2,0.6,0.3,1,0.3c0.6,0,1-0.5,0.8-1.1c-0.1-0.2-0.3-0.5-0.4-0.6c-0.5-0.5-1-0.9-1.6-1.3
		c-1.1-0.6-2.1-1.3-3.1-2.1c-1.6-1.2-2.3-2.8-2.3-4.7c0-1.1,0.5-2.1,1.3-2.9c1.1-1.2,2.5-1.9,4.1-2.3c2-0.4,3.8,0,5.4,1.2
		c1,0.8,1.9,1.6,2.8,2.4c0.1,0,0.1,0.1,0.2,0.2c0.3,0.3,0.3,0.4,0,0.7c-0.5,0.5-0.9,1-1.4,1.4c-0.4,0.4-0.8,0.8-1.2,1.1
		c-0.4,0.4-0.5,0.4-0.9,0c-0.7-0.6-1.4-1.1-2.2-1.6c-0.3-0.2-0.7-0.4-1.1-0.6c-0.7-0.3-1.2,0.2-1.4,0.7c-0.1,0.3,0,0.6,0.2,0.8
		c0.4,0.5,0.9,1,1.5,1.3c1.1,0.5,2.2,1.2,3.2,2c0.6,0.5,1.1,1,1.5,1.7c0.9,1.4,1,3,0.6,4.6c-0.4,1.4-1.4,2.3-2.6,3
		c-0.3,0.2-0.7,0.3-1.1,0.5C736.1,193.6,735.3,193.7,734.8,193.7z"/>
	<path d="M748.6,177.3c0,0.7,0,1.4,0,2.1c0,0.3,0,0.6,0,0.9c0,0.1,0.1,0.1,0.1,0.2c0.1,0,0.2,0,0.2-0.1c0.1-0.2,0.2-0.4,0.3-0.6
		c0.7-1.5,1.5-3,2.3-4.5c0.2-0.3,0.3-0.6,0.5-0.9c0.1-0.3,0.3-0.4,0.6-0.4c0.3,0,0.7,0,1,0c1,0,2,0,3,0c0.3,0,0.4,0.1,0.2,0.4
		c-0.3,0.6-0.6,1.2-0.9,1.8c-0.6,1-1.1,2-1.6,3c-0.6,1.2-1.2,2.3-1.8,3.5c-0.6,1-0.6,1,0,1.9c0.8,1.4,1.5,3,2.3,4.5
		c0.6,1.3,1.4,2.4,1.9,3.7c0,0,0,0.1,0.1,0.1c0.3,0.6,0.3,0.7-0.5,0.7c-0.6,0-1.1,0-1.7,0c-0.6,0-1.2,0-1.8,0
		c-0.4,0-0.7-0.2-0.9-0.6c-0.6-1.2-1.2-2.3-1.8-3.5c-0.3-0.6-0.6-1.2-0.9-1.8c-0.1-0.2-0.2-0.5-0.4-0.7c0-0.1-0.1-0.1-0.2-0.1
		c-0.1,0-0.1,0.1-0.1,0.2c0,0.2,0,0.4,0,0.6c0,1.7,0,3.3,0,5c0,0.9,0,0.9-1,1c-1,0-1.9,0.1-2.9,0c-0.2,0-0.4,0-0.5,0
		c-0.2,0-0.4-0.2-0.4-0.4c0-0.2,0-0.3,0-0.5c0.1-0.9,0.1-1.8,0-2.6c0-1.4-0.1-2.7-0.1-4.1c0-0.8-0.1-1.7-0.1-2.5c0-1.8,0-3.6,0-5.4
		c0-1.1,0.1-2.1,0.1-3.2c0-0.1,0-0.3,0-0.4c0-0.6,0.1-0.7,0.7-0.7c1.2,0,2.5,0,3.7,0c0.4,0,0.5,0.1,0.5,0.5
		C748.6,175.4,748.6,176.3,748.6,177.3z"/>
	<path d="M763.8,176.7c0,1.1,0,2.2-0.1,3.2c0,0.3,0,0.6,0,0.9c0,2.4,0.1,4.9,0.1,7.3c0,1.7-0.1,3.3-0.1,5c0,0.5-0.1,0.6-0.6,0.7
		c-0.3,0-0.6,0-0.9,0c-0.9,0-1.8,0-2.7,0c-0.6,0-0.8-0.2-0.8-0.8c0.1-3.2,0-6.4-0.2-9.6c0-0.3,0-0.5,0-0.8c0.1-1.9-0.1-3.8,0.1-5.7
		c0.1-0.8,0-1.5,0-2.3c0-0.8,0.1-0.9,0.9-0.9c0.7,0,1.4,0,2,0c0.4,0,0.9,0,1.3,0c0.6,0,0.7,0.1,0.7,0.7
		C763.8,175.3,763.8,176,763.8,176.7z"/>
	<path d="M766.4,183.7c0-0.9,0-1.8,0-2.7c0-1.1,0-2.2,0-3.4c0-0.8,0-1.6,0.1-2.4c0-0.5,0.2-0.7,0.7-0.7c0.1,0,0.3,0,0.4,0
		c1.8,0,3.6,0,5.5,0c1.4,0,2.7,0.4,3.8,1.3c0.5,0.4,0.9,1,1.2,1.6c0.4,0.8,0.6,1.5,0.6,2.4c0,0.8,0,1.6-0.1,2.4
		c-0.2,1-0.6,2-1.2,2.9c-0.2,0.4-0.6,0.7-1,1c-1,0.6-2,0.9-3.1,1.1c-0.7,0.1-1.4,0.2-2.1,0.2c-0.4,0-0.5,0.1-0.6,0.6
		c0,0.2,0,0.5,0,0.7c0,1.2,0,2.5,0.1,3.7c0,0.1,0,0.2,0,0.3c0,0.3-0.1,0.4-0.3,0.4c-0.2,0-0.4,0.1-0.6,0.1c-0.8,0-1.5,0-2.3,0
		c-0.7,0-0.8-0.2-0.8-0.9c0-1.4,0-2.7,0-4.1C766.4,186.7,766.4,185.2,766.4,183.7z M770.6,180.6c0,0.2,0,0.4,0,0.6
		c0,0.3-0.1,0.8,0.2,1.1c0.4,0.3,1,0.1,1.4,0.1c0.2,0,0.4-0.1,0.6-0.2c0.3-0.1,0.6-0.4,0.6-0.7c0.1-0.5,0.1-1-0.2-1.5
		c-0.2-0.4-0.6-0.7-1.1-0.8c-0.4-0.1-0.8,0-1.2,0c-0.3,0-0.4,0.1-0.4,0.4C770.6,179.9,770.6,180.2,770.6,180.6z"/>
	<path d="M780.6,183.7c0-0.9,0-1.8,0-2.7c0-1.1,0-2.2,0-3.4c0-0.8,0-1.6,0.1-2.4c0-0.5,0.2-0.7,0.7-0.7c0.1,0,0.3,0,0.4,0
		c1.8,0,3.6,0,5.5,0c1.4,0,2.7,0.4,3.8,1.3c0.5,0.4,0.9,1,1.2,1.6c0.4,0.8,0.6,1.5,0.6,2.4c0,0.8,0,1.6-0.1,2.4
		c-0.2,1-0.6,2-1.2,2.9c-0.2,0.4-0.6,0.7-1,1c-1,0.6-2,0.9-3.1,1.1c-0.7,0.1-1.4,0.2-2.1,0.2c-0.4,0-0.5,0.1-0.6,0.6
		c0,0.2,0,0.5,0,0.7c0,1.2,0,2.5,0.1,3.7c0,0.1,0,0.2,0,0.3c0,0.3-0.1,0.4-0.3,0.4c-0.2,0-0.4,0.1-0.6,0.1c-0.8,0-1.5,0-2.3,0
		c-0.7,0-0.8-0.2-0.8-0.9c0-1.4,0-2.7,0-4.1C780.6,186.7,780.6,185.2,780.6,183.7z M784.8,180.6c0,0.2,0,0.4,0,0.6
		c0,0.3-0.1,0.8,0.2,1.1c0.4,0.3,1,0.1,1.4,0.1c0.2,0,0.4-0.1,0.6-0.2c0.3-0.1,0.6-0.4,0.6-0.7c0.1-0.5,0.1-1-0.2-1.5
		c-0.2-0.4-0.6-0.7-1.1-0.8c-0.4-0.1-0.8,0-1.2,0c-0.3,0-0.4,0.1-0.4,0.4C784.8,179.9,784.8,180.2,784.8,180.6z"/>
	<path d="M800,176.7c0,1.1,0,2.2-0.1,3.2c0,0.3,0,0.6,0,0.9c0,2.4,0.1,4.9,0.1,7.3c0,1.7-0.1,3.3-0.1,5c0,0.5-0.1,0.6-0.6,0.7
		c-0.3,0-0.6,0-0.9,0c-0.9,0-1.8,0-2.7,0c-0.6,0-0.8-0.2-0.8-0.8c0.1-3.2,0-6.4-0.2-9.6c0-0.3,0-0.5,0-0.8c0.1-1.9-0.1-3.8,0.1-5.7
		c0.1-0.8,0-1.5,0-2.3c0-0.8,0.1-0.9,0.9-0.9c0.7,0,1.4,0,2,0c0.4,0,0.9,0,1.3,0c0.6,0,0.7,0.1,0.7,0.7
		C799.9,175.3,800,176,800,176.7z"/>
	<path d="M815.2,183.7c0,1.9,0,3.7,0,5.6c0,1-0.1,2-0.1,3c0,0.5-0.1,0.6-0.6,0.7c-1.1,0.1-2.1,0.2-3.2,0.1c-0.5-0.1-0.9-0.3-1-0.8
		c-0.4-1.3-1-2.6-1.6-3.8c-0.3-0.8-0.7-1.6-1-2.4c-0.1-0.1-0.1-0.2-0.2-0.3c0,0-0.1-0.1-0.1-0.1c0,0-0.1,0-0.1,0.1
		c-0.1,0.2-0.1,0.4-0.1,0.6c0,1.8,0,3.6,0,5.5c0,0.9,0,0.9-0.9,1c-0.9,0.1-1.8,0.1-2.6,0.1c-0.1,0-0.3,0-0.4,0
		c-0.3-0.1-0.4-0.2-0.5-0.5c0-0.2,0-0.3,0-0.5c0-1.5,0-2.9,0-4.4c-0.2-4.1-0.1-8.3-0.1-12.4c0-0.1,0-0.2,0-0.3
		c0-0.3,0.1-0.4,0.5-0.5c0.1,0,0.3,0,0.4,0c1.1,0,2.1,0,3.2,0c0.6,0,0.9,0.2,1.1,0.7c0.7,1.8,1.5,3.5,2.1,5.3
		c0.1,0.2,0.1,0.5,0.3,0.7c0,0,0.1,0.1,0.1,0c0,0,0.1-0.1,0.1-0.1c0-0.2,0-0.3,0-0.5c-0.1-1.8,0.2-3.6,0.1-5.4c0-0.1,0-0.2,0-0.3
		c0-0.2,0.2-0.3,0.4-0.4c0.3,0,0.6,0,0.9,0c0.9,0,1.8,0,2.7,0c0.5,0,0.6,0.1,0.6,0.6c0,1.1,0,2.3,0,3.4
		C815.2,180.3,815.2,182,815.2,183.7z"/>
	<path d="M828.9,182.5c0.8,0.1,2,0,3.1,0c0.1,0,0.3,0,0.4,0c0.4,0,0.5,0.1,0.5,0.5c0.1,1.1,0.2,2.2,0.1,3.3c0,0.1,0,0.2,0,0.2
		c0,0.4-0.1,0.5-0.5,0.5c-0.3,0-0.6,0.1-0.9,0.1c-0.6,0.1-0.7,0.1-0.8,0.8c-0.1,0.5-0.3,1-0.5,1.5c-0.6,1.4-1.5,2.5-2.8,3.3
		c-0.6,0.4-1.3,0.6-2,0.7c-1,0.2-2.1,0.1-3.1-0.1c-0.8-0.2-1.5-0.6-2.1-1.2c-1.8-1.9-2.9-4.1-2.9-6.8c0-1.2,0-2.4,0-3.6
		c0-0.9,0.2-1.7,0.4-2.5c0.4-1.5,1.2-2.7,2.2-3.8c0.5-0.6,1.1-1.1,1.9-1.3c0.9-0.3,1.9-0.5,2.9-0.4c0.1,0,0.2,0,0.3,0
		c1.8,0.1,3.2,1.1,4.3,2.4c0.5,0.6,0.8,1.4,1,2.2c0.1,0.4,0.1,0.5-0.3,0.7c-0.9,0.4-1.8,0.7-2.7,1c-0.1,0-0.3,0.1-0.4,0.1
		c-0.4,0.1-0.4,0.1-0.7-0.3c-0.3-0.5-0.5-0.9-1-1.2c-0.8-0.6-1.7-0.5-2.4,0.2c-0.5,0.5-0.7,1.2-0.8,1.8c-0.3,2-0.3,3.9,0,5.9
		c0.1,0.7,0.3,1.3,0.8,1.8c0.6,0.7,1.5,0.8,2.2,0.2c0.5-0.4,0.8-0.9,1.1-1.4c0.1-0.2,0-0.4-0.3-0.5c-0.4-0.1-0.8-0.1-1.2-0.1
		c-1,0-1.1-0.1-1.1-1c0-0.8,0-1.7,0-2.5c0-0.6,0.1-0.7,0.7-0.8C825.9,182.5,827.2,182.5,828.9,182.5z"/>
	<path d="M850.9,173.8c0.7,0,1.4,0,2,0c0.6,0,0.7,0.1,0.8,0.7c0.7,3.2,1.5,6.4,2.2,9.6c0.6,2.6,1.1,5.1,1.6,7.7
		c0.1,0.4,0.2,0.8,0.3,1.1c0.1,0.6,0,0.8-0.6,0.8c-0.9,0.1-1.8,0.1-2.7,0c-0.3,0-0.6-0.1-0.9-0.1c-0.4,0-0.6-0.2-0.6-0.6
		c0-0.3-0.1-0.5-0.2-0.8c-0.1-0.3-0.2-0.4-0.5-0.4c-1,0-2,0-3,0c-0.3,0-0.4,0.2-0.5,0.4c-0.1,0.3-0.2,0.7-0.2,1
		c-0.1,0.3-0.3,0.5-0.6,0.5c-1.2,0-2.4,0.2-3.6,0c-0.6-0.1-0.7-0.2-0.6-0.8c0.7-2.9,1.3-5.8,1.9-8.8c0.6-2.8,1.3-5.7,2-8.5
		c0.1-0.4,0.2-0.8,0.3-1.1c0.1-0.7,0.2-0.8,0.9-0.8C849.6,173.8,850.2,173.8,850.9,173.8C850.8,173.8,850.9,173.8,850.9,173.8z
		 M850.7,186.8c0.2,0,0.3,0,0.3,0c0.4,0,0.5-0.1,0.4-0.5c-0.1-0.6-0.2-1.2-0.4-1.8c0-0.1-0.1-0.1-0.2-0.1c-0.1,0-0.1,0-0.2,0.1
		c-0.2,0.6-0.3,1.3-0.4,2c0,0.2,0.1,0.3,0.3,0.3C850.7,186.8,850.8,186.8,850.7,186.8z"/>
	<path d="M875.5,193.8c-0.6,0-1.3,0-1.9,0c-0.5,0-0.6-0.1-0.8-0.6c-0.8-3.2-1.5-6.4-2.3-9.6c-0.6-2.6-1.1-5.2-1.6-7.9
		c-0.1-0.4-0.2-0.8-0.3-1.1c-0.1-0.5,0-0.6,0.5-0.7c0.6-0.1,1.3-0.1,1.9-0.1c0.6,0,1.2,0.1,1.9,0.1c0.3,0,0.5,0.2,0.6,0.5
		c0.3,1.2,0.6,2.4,0.9,3.6c0.3,1.2,0.6,2.4,0.8,3.6c0,0.1,0.1,0.3,0.1,0.4c0,0.1,0.1,0.2,0.2,0.2c0.2,0,0.2-0.1,0.2-0.3
		c0.3-1.4,0.6-2.7,0.9-4.1c0.3-1.1,0.5-2.2,0.8-3.3c0.1-0.6,0.2-0.6,0.8-0.7c1.1-0.1,2.2-0.2,3.3-0.1c0.8,0.1,0.9,0.1,0.7,1
		c-0.5,1.8-0.8,3.7-1.2,5.6c-0.4,1.9-0.7,3.9-1.2,5.8c-0.5,2-0.9,3.9-1.4,5.9c-0.1,0.4-0.1,0.7-0.2,1.1c-0.1,0.5-0.2,0.6-0.7,0.6
		C876.8,193.8,876.2,193.8,875.5,193.8z"/>
	<path d="M896.8,183.8c0,0.7,0,1.4,0,2.1c0,1.7-0.5,3.3-1.3,4.7c-1.1,1.9-2.8,3.1-5.1,3.2c-0.7,0-1.3,0-1.9-0.2
		c-0.9-0.2-1.7-0.6-2.4-1.3c-1.2-1.2-2-2.5-2.5-4.1c-0.2-0.8-0.4-1.7-0.4-2.6c0-1.1,0-2.3,0-3.4c0-1.9,0.5-3.8,1.5-5.4
		c0.9-1.5,2.2-2.6,4-2.9c2.4-0.4,4.5,0.2,6.2,2c0.7,0.8,1.1,1.7,1.4,2.7c0.4,1.4,0.6,2.9,0.5,4.4
		C896.8,183.3,896.8,183.6,896.8,183.8z M892.2,184.1c0-0.6,0-1.2,0-1.9c0-0.4-0.1-0.8-0.1-1.2c-0.1-0.7-0.3-1.4-0.8-1.9
		c-0.7-0.8-1.7-0.8-2.4,0c-0.5,0.5-0.7,1.2-0.8,1.9c-0.2,1.9-0.2,3.8,0,5.8c0,0.5,0.2,0.9,0.4,1.3c0.3,0.6,0.8,1.1,1.6,1.1
		c0.8,0,1.3-0.5,1.6-1.2c0.2-0.4,0.3-0.8,0.4-1.3C892.2,185.8,892.2,185,892.2,184.1z"/>
	<path d="M900.6,173.6c0.5,0,1.1,0,1.6,0c0.6,0,0.7,0.1,0.7,0.7c0,1.4,0.3,2.7,0.5,4.1c0.1,0.9,0.1,1.8,0.2,2.6
		c0,0.2,0.1,0.5,0.1,0.7c0,0.1,0,0.1,0.1,0.1c0.1,0,0.1,0,0.2,0c0.2-0.2,0.2-0.5,0.2-0.8c0.3-1.1,0.6-2.2,0.8-3.3c0-0.1,0-0.2,0-0.2
		c0.2-0.6,0.4-0.7,0.9-0.7c0.5,0,1.1,0,1.6,0.1c0.4,0,0.7,0,1.1,0.1c0.6,0.1,0.8,0.3,0.9,0.8c0.2,1,0.5,2,0.7,3
		c0.1,0.2,0.1,0.4,0.2,0.6c0,0.1,0.1,0.1,0.2,0.1c0.1,0,0.1-0.1,0.2-0.1c0.1-0.3,0.2-0.7,0.2-1c0.2-1.7,0.5-3.3,0.7-5
		c0.1-0.4,0-0.9,0.1-1.3c0-0.3,0.2-0.5,0.5-0.4c1.1,0.1,2.2,0.1,3.3,0.1c0.8,0,1,0,0.9,1c-0.1,1-0.2,2.1-0.3,3.1
		c-0.1,0.8-0.2,1.6-0.3,2.4c-0.2,1.3-0.2,2.6-0.5,3.9c-0.3,1.7-0.6,3.4-0.8,5.1c-0.1,0.6-0.2,1.3-0.2,1.9c-0.1,0.7-0.1,1.4-0.2,2.1
		c0,0.1,0,0.2-0.1,0.3c-0.1,0.4-0.2,0.5-0.6,0.5c-0.6,0-1.2,0.1-1.9,0.1c-0.4,0-0.8,0-1.2,0c-0.6,0-1-0.2-1.2-0.8
		c-0.2-0.7-0.5-1.4-0.7-2.1c-0.2-0.6-0.4-1.2-0.6-1.8c-0.1-0.3-0.2-1.2-0.6-1.3c-0.5-0.1-0.8,1.8-0.9,2.1c-0.3,0.9-0.5,1.7-0.8,2.6
		c-0.4,0.8-0.4,0.9-1.3,0.9c-1.1,0-2.1,0-3.2,0.1c-0.2,0-0.3,0-0.5,0c-0.7,0-0.8-0.1-0.8-0.8c-0.2-2.1-0.5-4.1-0.7-6.2
		c-0.1-0.9-0.1-1.8-0.2-2.7c-0.1-1.2-0.2-2.4-0.3-3.6c-0.1-0.9-0.1-1.9-0.2-2.8c-0.1-0.7-0.2-1.3-0.2-2c0-0.5-0.1-1-0.1-1.5
		c0-0.4,0.1-0.6,0.6-0.6C899.4,173.6,900,173.6,900.6,173.6z"/>
	<path d="M925.1,173.8c1.3-0.1,2.7,0,4,0c0.6,0,1.1,0,1.7,0c0.6,0,0.6,0.1,0.7,0.6c0,1.3,0,2.5,0,3.8c0,0.5-0.1,0.6-0.6,0.6
		c-1.3,0-2.6,0-3.9,0c-0.7,0-1.5,0-2.2,0c-0.2,0-0.4,0-0.5,0c-0.2,0-0.4,0.2-0.4,0.4c0,0.6,0,1.3,0,1.9c0,0.3,0.2,0.4,0.5,0.4
		c0.6,0,1.1,0,1.7,0c0.4,0,0.8,0,1.2,0c0.4,0,0.5,0.1,0.5,0.5c0,0.1,0,0.1,0,0.2c0,1,0,2-0.1,3c0,0.3-0.1,0.4-0.4,0.5
		c-0.1,0-0.3,0.1-0.4,0.1c-0.8,0.1-1.6,0.1-2.4,0.2c-0.1,0-0.2,0-0.3,0c-0.3,0-0.4,0.1-0.4,0.4c0,0.6,0,1.2,0,1.9
		c0,0.3,0.1,0.4,0.4,0.5c0.2,0,0.4,0,0.5,0c1,0,2,0,3-0.1c1.1-0.1,2.1,0,3.2,0c0.4,0,0.6,0.1,0.6,0.6c0,1.3,0,2.5,0,3.8
		c0,0.4-0.1,0.5-0.5,0.5c-0.1,0-0.2,0-0.3,0c-2-0.1-3.9,0.2-5.8,0.1c-1.9-0.1-3.7-0.1-5.6-0.2c-0.5,0-0.5-0.1-0.6-0.6
		c0-1-0.1-1.9,0-2.9c0.1-1.5-0.1-3-0.1-4.4c0.1-2.8,0.1-5.6,0.1-8.4c0-0.8,0-1.6,0-2.4c0-0.2,0-0.4,0-0.5c0-0.3,0.1-0.4,0.4-0.4
		c0.1,0,0.2,0,0.2,0c1,0,2-0.1,3-0.1C923.4,173.8,924.3,173.8,925.1,173.8z"/>
	<path d="M939.2,181.3c0,2.1-0.1,4.2,0,6.3c0,0.2,0,0.4,0,0.6c0,0.5,0.1,0.7,0.7,0.7c0.9,0,1.9,0,2.8-0.1c1.2-0.1,2.5-0.1,3.7-0.1
		c0.5,0,0.6,0.1,0.6,0.5c0,1.3,0,2.5,0,3.8c0,0.5-0.2,0.6-0.6,0.6c-0.1,0-0.2,0-0.2,0c-2-0.1-4,0.1-6,0c-1.8-0.1-3.6-0.1-5.4-0.2
		c-0.6,0-0.6-0.1-0.7-0.7c0-1,0-2,0-3c0-3.5,0-7.1,0-10.6c0-1.3,0-2.6,0-3.9c0-0.3,0-0.6,0-0.9c0-0.6,0.1-0.7,0.7-0.7
		c1.1,0,2.3,0,3.4-0.1c0.1,0,0.2,0,0.3,0c0.5,0,0.6,0.1,0.6,0.6c0,1,0,2,0.1,3C939.3,178.7,939.3,180,939.2,181.3z"/>
	<path d="M962.9,176.7c0,1.1,0,2.2-0.1,3.2c0,0.3,0,0.6,0,0.9c0,2.4,0.1,4.9,0.1,7.3c0,1.7-0.1,3.3-0.1,5c0,0.5-0.1,0.6-0.6,0.7
		c-0.3,0-0.6,0-0.9,0c-0.9,0-1.8,0-2.7,0c-0.6,0-0.8-0.2-0.8-0.8c0.1-3.2,0-6.4-0.2-9.6c0-0.3,0-0.5,0-0.8c0.1-1.9-0.1-3.8,0.1-5.7
		c0.1-0.8,0-1.5,0-2.3c0-0.8,0.1-0.9,0.9-0.9c0.7,0,1.4,0,2,0c0.4,0,0.9,0,1.3,0c0.6,0,0.7,0.1,0.7,0.7
		C962.9,175.3,962.9,176,962.9,176.7z"/>
	<path d="M973,193.7c-1.6,0.1-2.8-0.3-4-1c-1.2-0.8-2.3-1.7-3.3-2.7c-0.1-0.1-0.1-0.1-0.2-0.2c-0.2-0.2-0.2-0.4,0-0.6
		c0.1-0.2,0.3-0.3,0.4-0.5c0.6-0.6,1.1-1.2,1.7-1.8c0.1-0.1,0.2-0.2,0.3-0.3c0.2-0.2,0.4-0.2,0.6,0c0.3,0.2,0.5,0.4,0.7,0.6
		c0.8,0.6,1.6,1.3,2.5,1.7c0.3,0.2,0.6,0.3,1,0.3c0.6,0,1-0.5,0.8-1.1c-0.1-0.2-0.3-0.5-0.4-0.6c-0.5-0.5-1-0.9-1.6-1.3
		c-1.1-0.6-2.1-1.3-3.1-2.1c-1.6-1.2-2.3-2.8-2.3-4.7c0-1.1,0.5-2.1,1.3-2.9c1.1-1.2,2.5-1.9,4.1-2.3c2-0.4,3.8,0,5.4,1.2
		c1,0.8,1.9,1.6,2.8,2.4c0.1,0,0.1,0.1,0.2,0.2c0.3,0.3,0.3,0.4,0,0.7c-0.5,0.5-0.9,1-1.4,1.4c-0.4,0.4-0.8,0.8-1.2,1.1
		c-0.4,0.4-0.5,0.4-0.9,0c-0.7-0.6-1.4-1.1-2.2-1.6c-0.3-0.2-0.7-0.4-1.1-0.6c-0.7-0.3-1.2,0.2-1.4,0.7c-0.1,0.3,0,0.6,0.2,0.8
		c0.4,0.5,0.9,1,1.5,1.3c1.1,0.5,2.2,1.2,3.2,2c0.6,0.5,1.1,1,1.5,1.7c0.9,1.4,1,3,0.6,4.6c-0.4,1.4-1.4,2.3-2.6,3
		c-0.3,0.2-0.7,0.3-1.1,0.5C974.3,193.6,973.5,193.7,973,193.7z"/>
	<path d="M998.3,193.7c-1.6,0.1-2.8-0.3-4-1c-1.2-0.8-2.3-1.7-3.3-2.7c-0.1-0.1-0.1-0.1-0.2-0.2c-0.2-0.2-0.2-0.4,0-0.6
		c0.1-0.2,0.3-0.3,0.4-0.5c0.6-0.6,1.1-1.2,1.7-1.8c0.1-0.1,0.2-0.2,0.3-0.3c0.2-0.2,0.4-0.2,0.6,0c0.3,0.2,0.5,0.4,0.7,0.6
		c0.8,0.6,1.6,1.3,2.5,1.7c0.3,0.2,0.6,0.3,1,0.3c0.6,0,1-0.5,0.8-1.1c-0.1-0.2-0.3-0.5-0.4-0.6c-0.5-0.5-1-0.9-1.6-1.3
		c-1.1-0.6-2.1-1.3-3.1-2.1c-1.6-1.2-2.3-2.8-2.3-4.7c0-1.1,0.5-2.1,1.3-2.9c1.1-1.2,2.5-1.9,4.1-2.3c2-0.4,3.8,0,5.4,1.2
		c1,0.8,1.9,1.6,2.8,2.4c0.1,0,0.1,0.1,0.2,0.2c0.3,0.3,0.3,0.4,0,0.7c-0.5,0.5-0.9,1-1.4,1.4c-0.4,0.4-0.8,0.8-1.2,1.1
		c-0.4,0.4-0.5,0.4-0.9,0c-0.7-0.6-1.4-1.1-2.2-1.6c-0.3-0.2-0.7-0.4-1.1-0.6c-0.7-0.3-1.2,0.2-1.4,0.7c-0.1,0.3,0,0.6,0.2,0.8
		c0.4,0.5,0.9,1,1.5,1.3c1.1,0.5,2.2,1.2,3.2,2c0.6,0.5,1.1,1,1.5,1.7c0.9,1.4,1,3,0.6,4.6c-0.4,1.4-1.4,2.3-2.6,3
		c-0.3,0.2-0.7,0.3-1.1,0.5C999.6,193.6,998.8,193.7,998.3,193.7z"/>
	<path d="M1010.1,186.3c0-1.7,0-3.4,0-5.1c0-0.7-0.1-1.5-0.1-2.2c0-0.4-0.1-0.5-0.5-0.5c-0.6,0-1.3,0-2,0c-1.2,0-1.2,0-1.2-1.2
		c0-0.8,0-1.6-0.1-2.3c0-0.1,0-0.2,0-0.3c0-0.3,0.1-0.4,0.4-0.5c0.2,0,0.4,0,0.5,0c1.6,0,3.2,0,4.8,0c1.6,0,3.2,0,4.8,0
		c0.4,0,0.9,0,1.3,0.1c0.3,0,0.5,0.2,0.5,0.5c0,1,0.1,2.1,0,3.1c0,0.4-0.2,0.5-0.6,0.5c-0.7,0-1.4,0-2.1,0.1c-0.2,0-0.3,0-0.5,0
		c-0.6,0-0.7,0.1-0.7,0.7c0,0.7,0,1.4,0,2c0.1,1.5,0.1,3.1,0,4.6c0,0.4,0,0.7,0,1.1c0.1,0.6,0.1,1.3,0,1.9c-0.1,1-0.1,2.1,0,3.1
		c0,0.3,0,0.6,0,0.9c0,0.4-0.2,0.5-0.6,0.6c-0.2,0-0.4,0-0.6,0c-0.8,0-1.7,0-2.5,0c-0.2,0-0.3,0-0.5,0c-0.3,0-0.5-0.2-0.5-0.5
		c0-0.2,0-0.5,0-0.7C1010.1,190.3,1010.1,188.3,1010.1,186.3z"/>
	<path d="M1025.7,176.7c0,1.1,0,2.2-0.1,3.2c0,0.3,0,0.6,0,0.9c0,2.4,0.1,4.9,0.1,7.3c0,1.7-0.1,3.3-0.1,5c0,0.5-0.1,0.6-0.6,0.7
		c-0.3,0-0.6,0-0.9,0c-0.9,0-1.8,0-2.7,0c-0.6,0-0.8-0.2-0.8-0.8c0.1-3.2,0-6.4-0.2-9.6c0-0.3,0-0.5,0-0.8c0.1-1.9-0.1-3.8,0.1-5.7
		c0.1-0.8,0-1.5,0-2.3c0-0.8,0.1-0.9,0.9-0.9c0.7,0,1.4,0,2,0c0.4,0,0.9,0,1.3,0c0.6,0,0.7,0.1,0.7,0.7
		C1025.7,175.3,1025.7,176,1025.7,176.7z"/>
	<path d="M1033.3,181.3c0,2.1-0.1,4.2,0,6.3c0,0.2,0,0.4,0,0.6c0,0.5,0.1,0.7,0.7,0.7c0.9,0,1.9,0,2.8-0.1c1.2-0.1,2.5-0.1,3.7-0.1
		c0.5,0,0.6,0.1,0.6,0.5c0,1.3,0,2.5,0,3.8c0,0.5-0.2,0.6-0.6,0.6c-0.1,0-0.2,0-0.2,0c-2-0.1-4,0.1-6,0c-1.8-0.1-3.6-0.1-5.4-0.2
		c-0.6,0-0.6-0.1-0.7-0.7c0-1,0-2,0-3c0-3.5,0-7.1,0-10.6c0-1.3,0-2.6,0-3.9c0-0.3,0-0.6,0-0.9c0-0.6,0.1-0.7,0.7-0.7
		c1.1,0,2.3,0,3.4-0.1c0.1,0,0.2,0,0.3,0c0.5,0,0.6,0.1,0.6,0.6c0,1,0,2,0,3C1033.4,178.7,1033.4,180,1033.3,181.3z"/>
	<path d="M1048.5,181.3c0,2.1-0.1,4.2,0,6.3c0,0.2,0,0.4,0,0.6c0,0.5,0.1,0.7,0.7,0.7c0.9,0,1.9,0,2.8-0.1c1.2-0.1,2.5-0.1,3.7-0.1
		c0.5,0,0.6,0.1,0.6,0.5c0,1.3,0,2.5,0,3.8c0,0.5-0.2,0.6-0.6,0.6c-0.1,0-0.2,0-0.2,0c-2-0.1-4,0.1-6,0c-1.8-0.1-3.6-0.1-5.4-0.2
		c-0.6,0-0.6-0.1-0.7-0.7c0-1,0-2,0-3c0-3.5,0-7.1,0-10.6c0-1.3,0-2.6,0-3.9c0-0.3,0-0.6,0-0.9c0-0.6,0.1-0.7,0.7-0.7
		c1.1,0,2.3,0,3.4-0.1c0.1,0,0.2,0,0.3,0c0.5,0,0.6,0.1,0.6,0.6c0,1,0,2,0,3C1048.5,178.7,1048.5,180,1048.5,181.3z"/>
	<path d="M1079.9,183.8c0,2,0,4,0,5.9c0,1,0,1.9-0.1,2.9c0,0.1,0,0.1,0,0.2c0,0.4-0.2,0.5-0.6,0.6c-0.9,0-1.8,0-2.7,0
		c-0.3,0-0.5,0-0.8,0c-0.3,0-0.5-0.2-0.5-0.5c0-0.1,0-0.2,0-0.2c0.1-1.3,0.1-2.6,0-3.9c0-0.6,0-1.2,0-1.9c0-0.2,0-0.4,0-0.5
		c0-0.2-0.1-0.3-0.3-0.3c-0.1,0-0.2,0-0.3,0c-0.6,0-1.2,0-1.8,0c-0.7,0-0.7,0.1-0.8,0.8c0,0.9,0,1.8,0,2.7c0,1-0.1,2.1-0.1,3.1
		c0,0.1,0,0.2,0,0.2c0,0.3-0.2,0.4-0.5,0.4c-1.2,0.1-2.4,0.1-3.6,0c-0.4,0-0.5-0.2-0.5-0.6c0-0.4,0.1-0.8,0.1-1.2
		c-0.1-2.6-0.1-5.2-0.2-7.9c-0.1-1.9-0.1-3.8,0-5.8c0-0.9,0-1.8,0.1-2.7c0-0.2,0-0.4,0-0.5c0-0.3,0.2-0.4,0.5-0.5c0.1,0,0.2,0,0.2,0
		c1.1,0,2.2,0,3.4,0c0.1,0,0.2,0,0.3,0c0.2,0,0.3,0.2,0.3,0.4c0,0.2,0,0.4,0,0.6c0,1.7,0.1,3.3,0,5c0,0.9,0,1,0.9,1
		c0.6,0,1.1,0,1.7,0c0.4,0,0.5-0.2,0.5-0.5c0-1.8,0.1-3.6,0.1-5.5c0-1,0-1,1-1c1,0,1.9,0,2.9,0c0.1,0,0.3,0,0.4,0
		c0.3,0,0.4,0.1,0.5,0.5c0,0.2,0,0.4,0,0.6C1079.9,178.2,1079.9,181,1079.9,183.8C1079.9,183.8,1079.9,183.8,1079.9,183.8z"/>
	<path d="M1087.5,176.7c0,1.1,0,2.2-0.1,3.2c0,0.3,0,0.6,0,0.9c0,2.4,0.1,4.9,0.1,7.3c0,1.7-0.1,3.3-0.1,5c0,0.5-0.1,0.6-0.6,0.7
		c-0.3,0-0.6,0-0.9,0c-0.9,0-1.8,0-2.7,0c-0.6,0-0.8-0.2-0.8-0.8c0.1-3.2,0-6.4-0.2-9.6c0-0.3,0-0.5,0-0.8c0.1-1.9-0.1-3.8,0.1-5.7
		c0.1-0.8,0-1.5,0-2.3c0-0.8,0.1-0.9,0.9-0.9c0.7,0,1.4,0,2,0c0.4,0,0.9,0,1.3,0c0.6,0,0.7,0.1,0.7,0.7
		C1087.5,175.3,1087.5,176,1087.5,176.7z"/>
	<path d="M1090.1,183.7c0-0.9,0-1.8,0-2.7c0-1.1,0-2.2,0-3.4c0-0.8,0-1.6,0.1-2.4c0-0.5,0.2-0.7,0.7-0.7c0.1,0,0.3,0,0.4,0
		c1.8,0,3.6,0,5.5,0c1.4,0,2.7,0.4,3.8,1.3c0.5,0.4,0.9,1,1.2,1.6c0.4,0.8,0.6,1.5,0.6,2.4c0,0.8,0,1.6-0.1,2.4
		c-0.2,1-0.6,2-1.2,2.9c-0.2,0.4-0.6,0.7-1,1c-1,0.6-2,0.9-3.1,1.1c-0.7,0.1-1.4,0.2-2.1,0.2c-0.4,0-0.5,0.1-0.6,0.6
		c0,0.2,0,0.5,0,0.7c0,1.2,0,2.5,0.1,3.7c0,0.1,0,0.2,0,0.3c0,0.3-0.1,0.4-0.3,0.4c-0.2,0-0.4,0.1-0.6,0.1c-0.8,0-1.5,0-2.3,0
		c-0.7,0-0.8-0.2-0.8-0.9c0-1.4,0-2.7,0-4.1C1090.1,186.7,1090.1,185.2,1090.1,183.7z M1094.3,180.6c0,0.2,0,0.4,0,0.6
		c0,0.3-0.1,0.8,0.2,1.1c0.4,0.3,1,0.1,1.4,0.1c0.2,0,0.4-0.1,0.6-0.2c0.3-0.1,0.6-0.4,0.6-0.7c0.1-0.5,0.1-1-0.2-1.5
		c-0.2-0.4-0.6-0.7-1.1-0.8c-0.4-0.1-0.8,0-1.2,0c-0.3,0-0.4,0.1-0.4,0.4C1094.3,179.9,1094.3,180.2,1094.3,180.6z"/>
	<path d="M1109.2,190.9c0,0.1-0.1,0.3-0.2,0.4c-0.2,0.3-0.3,0.6-0.5,0.9c-0.6,0.7-1.1,1.5-1.6,2.2c-0.1,0.2-0.2,0.3-0.4,0.5
		c-0.2,0.2-0.3,0.5-0.6,0.5c-0.4,0-0.7-0.2-0.9-0.5c-0.1-0.1-0.1-0.2,0-0.4c0.2-1.3,0.4-2.5,0.7-3.8c0-0.2,0.1-0.4,0.1-0.5
		c0.1-0.4,0.3-0.6,0.7-0.6c0.2,0,0.5,0,0.7,0.1c0.6,0.2,1.1,0.4,1.7,0.6C1109,190.4,1109.2,190.6,1109.2,190.9z"/>
	<path d="M1123.9,188.6c0-1.7-0.1-3.5-0.2-5.2c0-0.4-0.1-0.7-0.3-1.1c-0.6-1.4-1.2-2.7-1.8-4.1c-0.6-1.3-1.1-2.5-1.6-3.8
		c0-0.1-0.1-0.2-0.1-0.4c0-0.1,0-0.3,0.2-0.3c0.1,0,0.2,0,0.2,0c1.1,0,2.3-0.1,3.4-0.1c1.2,0,1.2,0.1,1.7,1.1
		c0.2,0.6,0.5,1.1,0.8,1.7c0,0.1,0.1,0.2,0.3,0.2c0.2,0,0.2-0.1,0.3-0.3c0.3-0.7,0.6-1.3,0.9-2c0.1-0.2,0.1-0.3,0.2-0.5
		c0.1-0.3,0.4-0.5,0.7-0.5c1.4,0,2.8,0,4.2,0c0.2,0,0.3,0.1,0.2,0.4c0,0.1-0.1,0.2-0.1,0.3c-0.7,1.8-1.4,3.6-2.2,5.3
		c-0.4,0.9-0.8,1.9-1.2,2.8c-0.1,0.2-0.1,0.3-0.2,0.5c-0.1,1.1-0.3,2.1-0.3,3.2c0,2.4,0,4.8,0,7.3c0,0.1,0,0.2,0,0.2
		c0,0.4-0.1,0.5-0.5,0.6c-0.4,0-0.7,0.1-1.1,0.1c-0.8,0-1.6,0-2.4,0c-0.2,0-0.3,0-0.5-0.1c-0.4-0.1-0.5-0.2-0.5-0.6
		c0-0.1,0-0.2,0-0.2c0.1-1.2,0.1-2.5,0-3.7C1123.8,189.1,1123.9,188.9,1123.9,188.6z"/>
	<path d="M1140.5,173.8c1.3-0.1,2.7,0,4,0c0.6,0,1.1,0,1.7,0c0.6,0,0.6,0.1,0.7,0.6c0,1.3,0,2.5,0,3.8c0,0.5-0.1,0.6-0.6,0.6
		c-1.3,0-2.6,0-3.9,0c-0.7,0-1.5,0-2.2,0c-0.2,0-0.4,0-0.5,0c-0.2,0-0.4,0.2-0.4,0.4c0,0.6,0,1.3,0,1.9c0,0.3,0.2,0.4,0.5,0.4
		c0.6,0,1.1,0,1.7,0c0.4,0,0.8,0,1.2,0c0.4,0,0.5,0.1,0.5,0.5c0,0.1,0,0.1,0,0.2c0,1,0,2-0.1,3c0,0.3-0.2,0.4-0.4,0.5
		c-0.1,0-0.3,0.1-0.4,0.1c-0.8,0.1-1.6,0.1-2.4,0.2c-0.1,0-0.2,0-0.3,0c-0.3,0-0.4,0.1-0.4,0.4c0,0.6,0,1.2,0,1.9
		c0,0.3,0.1,0.4,0.4,0.5c0.2,0,0.4,0,0.5,0c1,0,2,0,3-0.1c1.1-0.1,2.1,0,3.2,0c0.4,0,0.6,0.1,0.6,0.6c0,1.3,0,2.5,0,3.8
		c0,0.4-0.1,0.5-0.5,0.5c-0.1,0-0.2,0-0.3,0c-2-0.1-3.9,0.2-5.8,0.1c-1.9-0.1-3.7-0.1-5.6-0.2c-0.5,0-0.5-0.1-0.6-0.6
		c0-1-0.1-1.9,0-2.9c0.1-1.5-0.1-3-0.1-4.4c0.1-2.8,0.1-5.6,0.1-8.4c0-0.8,0-1.6,0-2.4c0-0.2,0-0.4,0-0.5c0-0.3,0.1-0.4,0.4-0.4
		c0.1,0,0.2,0,0.2,0c1,0,2-0.1,3-0.1C1138.7,173.8,1139.6,173.8,1140.5,173.8z"/>
	<path d="M1156,173.8c0.7,0,1.4,0,2,0c0.6,0,0.7,0.1,0.8,0.7c0.8,3.2,1.5,6.4,2.2,9.6c0.6,2.6,1.1,5.1,1.6,7.7
		c0.1,0.4,0.2,0.8,0.3,1.1c0.1,0.6,0,0.8-0.6,0.8c-0.9,0.1-1.8,0.1-2.7,0c-0.3,0-0.6-0.1-0.9-0.1c-0.4,0-0.6-0.2-0.6-0.6
		c0-0.3-0.1-0.5-0.2-0.8c-0.1-0.3-0.2-0.4-0.5-0.4c-1,0-2,0-3,0c-0.3,0-0.4,0.2-0.5,0.4c-0.1,0.3-0.2,0.7-0.2,1
		c-0.1,0.3-0.3,0.5-0.6,0.5c-1.2,0-2.4,0.2-3.6,0c-0.6-0.1-0.7-0.2-0.6-0.8c0.7-2.9,1.3-5.8,1.9-8.8c0.6-2.8,1.3-5.7,2-8.5
		c0.1-0.4,0.2-0.8,0.3-1.1c0.1-0.7,0.2-0.8,0.9-0.8C1154.7,173.8,1155.3,173.8,1156,173.8C1156,173.8,1156,173.8,1156,173.8z
		 M1155.9,186.8c0.2,0,0.3,0,0.3,0c0.4,0,0.5-0.1,0.4-0.5c-0.1-0.6-0.2-1.2-0.4-1.8c0-0.1-0.1-0.1-0.2-0.1c-0.1,0-0.1,0-0.2,0.1
		c-0.2,0.6-0.3,1.3-0.4,2c0,0.2,0.1,0.3,0.3,0.3C1155.8,186.8,1155.9,186.8,1155.9,186.8z"/>
	<path d="M1177.8,183.8c0,2,0,4,0,5.9c0,1,0,1.9-0.1,2.9c0,0.1,0,0.1,0,0.2c0,0.4-0.2,0.5-0.6,0.6c-0.9,0-1.8,0-2.7,0
		c-0.3,0-0.5,0-0.8,0c-0.3,0-0.5-0.2-0.5-0.5c0-0.1,0-0.2,0-0.2c0.1-1.3,0.1-2.6,0-3.9c0-0.6,0-1.2,0-1.9c0-0.2,0-0.4,0-0.5
		c0-0.2-0.1-0.3-0.3-0.3c-0.1,0-0.2,0-0.3,0c-0.6,0-1.2,0-1.8,0c-0.7,0-0.7,0.1-0.8,0.8c0,0.9,0,1.8,0,2.7c0,1-0.1,2.1-0.1,3.1
		c0,0.1,0,0.2,0,0.2c0,0.3-0.2,0.4-0.5,0.4c-1.2,0.1-2.4,0.1-3.6,0c-0.4,0-0.5-0.2-0.5-0.6c0-0.4,0.1-0.8,0.1-1.2
		c-0.1-2.6-0.1-5.2-0.2-7.9c-0.1-1.9-0.1-3.8,0-5.8c0-0.9,0-1.8,0.1-2.7c0-0.2,0-0.4,0-0.5c0-0.3,0.2-0.4,0.5-0.5c0.1,0,0.2,0,0.2,0
		c1.1,0,2.2,0,3.4,0c0.1,0,0.2,0,0.3,0c0.2,0,0.3,0.2,0.3,0.4c0,0.2,0,0.4,0,0.6c0,1.7,0.1,3.3,0,5c0,0.9,0,1,0.9,1
		c0.6,0,1.1,0,1.7,0c0.4,0,0.5-0.2,0.5-0.5c0-1.8,0.1-3.6,0.1-5.5c0-1,0-1,1-1c1,0,1.9,0,2.9,0c0.1,0,0.3,0,0.4,0
		c0.3,0,0.4,0.1,0.5,0.5c0,0.2,0,0.4,0,0.6C1177.9,178.2,1177.9,181,1177.8,183.8C1177.8,183.8,1177.8,183.8,1177.8,183.8z"/>
	<path d="M1186.3,188.7c-0.6,0-1.2,0-1.9,0c-0.3,0-0.4-0.1-0.5-0.4c-0.1-1.5-0.3-2.9-0.1-4.4c0-0.4,0.1-0.5,0.5-0.5
		c0.5,0,1.1,0,1.6,0c1,0,1.6-0.5,1.9-1.3c0.5-1.4,0.5-3.7-1.1-4.4c-0.9-0.4-1.9,0.1-2.4,0.9c-0.1,0.2-0.2,0.3-0.3,0.5
		c-0.1,0.2-0.3,0.2-0.5,0.2c-0.4-0.1-0.9-0.3-1.3-0.4c-0.5-0.2-1-0.4-1.5-0.6c-0.4-0.2-0.5-0.3-0.4-0.8c0.4-1.2,1.1-2.2,2.1-2.9
		c1.7-1.2,3.6-1.3,5.6-0.9c3.4,0.8,5.1,5,4.4,8.2c-0.2,0.8-0.5,1.6-1,2.4c-0.4,0.7-0.9,1.3-1.4,1.8c-0.3,0.3-0.6,0.6-0.9,0.7
		c-0.4,0.2-0.6,0.5-0.5,0.9c0,0.2,0,0.3,0,0.5c-0.1,0.5-0.1,0.6-0.6,0.6C1187.5,188.7,1186.9,188.7,1186.3,188.7z M1186.5,190.4
		c0.6,0,1.2,0,1.8,0c0.6,0,0.7,0.1,0.7,0.8c0,0.4-0.1,0.9,0,1.3c0,0.2,0,0.4,0,0.5c-0.1,0.4-0.2,0.5-0.6,0.5c-0.8,0-1.6,0-2.3,0
		c-0.4,0-0.9,0-1.3,0c-0.2,0-0.4-0.1-0.4-0.4c-0.1-0.7-0.2-1.4-0.2-2.2c0-0.5,0.1-0.6,0.7-0.6
		C1185.3,190.4,1185.9,190.4,1186.5,190.4C1186.5,190.4,1186.5,190.4,1186.5,190.4z"/>
	<path d="M1199.6,190.1c-0.3,0.9-0.5,1.7-0.9,2.5c-0.6,1.1-1.2,1.1-2.4,1.1c-0.4,0-1,0.1-1.1-0.4c0-0.2,0.1-0.4,0.2-0.6
		c0.2-0.5,0.5-1.1,0.7-1.6c1.1-2.9,1.6-6,1.5-9.1c-0.1-2.8-0.8-5.7-1.8-8.4c-0.5-1.3-0.5-1.7,1-1.7c0.9,0,1.4,0.1,1.7,1
		c0.5,1.2,0.9,2.5,1.1,3.8C1200.6,180.9,1201,185.9,1199.6,190.1z"/>
</g>
</svg>
