<?xml version="1.0" encoding="utf-8"?>
<!-- Generator: Adobe Illustrator 25.2.1, SVG Export Plug-In . SVG Version: 6.00 Build 0)  -->
<svg version="1.1" id="Layer_1" xmlns="http://www.w3.org/2000/svg" xmlns:xlink="http://www.w3.org/1999/xlink" x="0px" y="0px"
	 viewBox="0 0 1920 478" style="enable-background:new 0 0 1920 478;" xml:space="preserve">
<style type="text/css">
	.st0{clip-path:url(#SVGID_2_);}
	.st1{clip-path:url(#SVGID_4_);}
	.st2{clip-path:url(#SVGID_6_);}
	.st3{fill:#F6921E;}
	.st4{fill:#FAAF40;}
	.st5{fill:#F6921E;stroke:#231F20;stroke-width:0.2319;stroke-miterlimit:10;}
	.st6{fill:#FAAF40;stroke:#231F20;stroke-width:0.2311;stroke-miterlimit:10;}
	.st7{fill:#F6921E;stroke:#231F20;stroke-width:0.2236;stroke-miterlimit:10;}
	.st8{fill:#FAAF40;stroke:#231F20;stroke-width:0.2236;stroke-miterlimit:10;}
	.st9{fill:#F6921E;stroke:#231F20;stroke-width:0.1747;stroke-miterlimit:10;}
	.st10{fill:#FAAF40;stroke:#231F20;stroke-width:0.1741;stroke-miterlimit:10;}
	.st11{fill:#F6921E;stroke:#231F20;stroke-width:0.1684;stroke-miterlimit:10;}
	.st12{fill:#FAAF40;stroke:#231F20;stroke-width:0.1684;stroke-miterlimit:10;}
	.st13{fill:#F6921E;stroke:#231F20;stroke-width:0.1004;stroke-miterlimit:10;}
	.st14{fill:#FAAF40;stroke:#231F20;stroke-width:0.1;stroke-miterlimit:10;}
	.st15{fill:#F6921E;stroke:#231F20;stroke-width:9.677314e-02;stroke-miterlimit:10;}
	.st16{fill:#FAAF40;stroke:#231F20;stroke-width:9.677314e-02;stroke-miterlimit:10;}
	.st17{fill:#FAAF40;stroke:#231F20;stroke-width:7.066043e-02;stroke-miterlimit:10;}
	.st18{fill:#F6921E;stroke:#231F20;stroke-width:6.834826e-02;stroke-miterlimit:10;}
	.st19{fill:#FAAF40;stroke:#231F20;stroke-width:6.834826e-02;stroke-miterlimit:10;}
	.st20{clip-path:url(#SVGID_8_);}
	.st21{clip-path:url(#SVGID_10_);}
	.st22{font-family:'KCIllHandRegular';}
	.st23{font-size:99.9216px;}
	.st24{font-size:28.4128px;}
</style>
<g>
	<defs>
		<rect id="SVGID_1_" width="1920" height="478"/>
	</defs>
	<clipPath id="SVGID_2_">
		<use xlink:href="#SVGID_1_"  style="overflow:visible;"/>
	</clipPath>
	<g class="st0">
		<defs>
			<rect id="SVGID_3_" width="1937" height="600"/>
		</defs>
		<clipPath id="SVGID_4_">
			<use xlink:href="#SVGID_3_"  style="overflow:visible;"/>
		</clipPath>
		<g class="st1">
			<defs>
				<rect id="SVGID_5_" x="954.6" y="-798.2" width="1033.9" height="1533.2"/>
			</defs>
			<clipPath id="SVGID_6_">
				<use xlink:href="#SVGID_5_"  style="overflow:visible;"/>
			</clipPath>
			<g class="st2">
				
					<rect x="1147.1" y="419.5" transform="matrix(4.221105e-03 -1 1 4.221105e-03 721.7175 1648.9615)" class="st5" width="83.5" height="85.1"/>
				
					<rect x="1039.2" y="418.6" transform="matrix(4.221205e-03 -1 1 4.221205e-03 614.9308 1539.9098)" class="st6" width="82.9" height="85.1"/>
				
					<rect x="1349" y="423.3" transform="matrix(4.233396e-03 -1 1 4.233396e-03 921.7294 1851.6385)" class="st7" width="83.3" height="79.3"/>
				
					<rect x="1541.9" y="424.4" transform="matrix(4.234553e-03 -1 1 4.234553e-03 1112.8013 2045.6093)" class="st7" width="83.3" height="79.3"/>
				
					<rect x="1740" y="425.2" transform="matrix(4.234764e-03 -1 1 4.234764e-03 1309.2465 2244.5698)" class="st7" width="83.3" height="79.3"/>
				
					<rect x="1250.4" y="422.8" transform="matrix(4.233293e-03 -1 1 4.233293e-03 824.0518 1752.4907)" class="st8" width="83.3" height="79.3"/>
				
					<rect x="1446.5" y="423.8" transform="matrix(4.234553e-03 -1 1 4.234553e-03 1018.4012 1949.6532)" class="st8" width="83.3" height="79.3"/>
				
					<rect x="1639.3" y="424.9" transform="matrix(4.233606e-03 -1 1 4.233606e-03 1209.2195 2143.4734)" class="st8" width="83.3" height="79.3"/>
				
					<rect x="1840.7" y="425.6" transform="matrix(4.258818e-03 -1 1 4.258818e-03 1409.0084 2345.6145)" class="st8" width="83.3" height="79.3"/>
				
					<rect x="1165.2" y="336.2" transform="matrix(4.221200e-03 -1 1 4.221200e-03 805.0863 1566.1021)" class="st9" width="47.4" height="85.1"/>
				
					<rect x="1057.2" y="335.5" transform="matrix(4.221205e-03 -1 1 4.221205e-03 698.1055 1457.241)" class="st10" width="47.1" height="85.1"/>
				
					<rect x="1367.1" y="340" transform="matrix(4.233504e-03 -1 1 4.233504e-03 1005.1202 1768.7582)" class="st11" width="47.3" height="79.3"/>
				
					<rect x="1560" y="341" transform="matrix(4.258499e-03 -1 1 4.258499e-03 1196.2227 1962.6498)" class="st11" width="47.3" height="79.3"/>
				
					<rect x="1758.1" y="341.8" transform="matrix(4.233504e-03 -1 1 4.233504e-03 1392.7084 2161.6196)" class="st11" width="47.3" height="79.3"/>
				
					<rect x="1268.4" y="339.5" transform="matrix(4.233401e-03 -1 1 4.233401e-03 907.3957 1669.6552)" class="st12" width="47.3" height="79.3"/>
				
					<rect x="1464.6" y="340.5" transform="matrix(4.233396e-03 -1 1 4.233396e-03 1101.8163 1866.7491)" class="st12" width="47.3" height="79.3"/>
				
					<rect x="1657.3" y="341.5" transform="matrix(4.233396e-03 -1 1 4.233396e-03 1292.726 2060.4795)" class="st12" width="47.3" height="79.3"/>
				
					<rect x="1858.8" y="342.2" transform="matrix(4.209558e-03 -1 1 4.209558e-03 1492.5554 2262.6914)" class="st12" width="47.3" height="79.3"/>
				
					<rect x="1181.2" y="288.3" transform="matrix(4.221200e-03 -1 1 4.221200e-03 853.1381 1518.3894)" class="st13" width="15.6" height="85.1"/>
				
					<rect x="1073.1" y="287.7" transform="matrix(4.243520e-03 -1 1 4.243520e-03 745.9618 1409.6906)" class="st14" width="15.5" height="85.1"/>
				
					<rect x="1383" y="292" transform="matrix(4.234764e-03 -1 1 4.234764e-03 1053.1884 1721.0277)" class="st15" width="15.6" height="79.3"/>
				
					<rect x="1575.9" y="292.9" transform="matrix(4.209348e-03 -1 1 4.209348e-03 1244.4299 1914.8792)" class="st15" width="15.6" height="79.3"/>
				
					<rect x="1774" y="293.8" transform="matrix(4.258607e-03 -1 1 4.258607e-03 1440.7942 2113.8208)" class="st15" width="15.6" height="79.3"/>
				
					<rect x="1284.3" y="291.6" transform="matrix(4.233401e-03 -1 1 4.233401e-03 955.4226 1621.9679)" class="st16" width="15.6" height="79.3"/>
				
					<rect x="1480.5" y="292.4" transform="matrix(4.233396e-03 -1 1 4.233396e-03 1149.9066 1818.9996)" class="st16" width="15.6" height="79.3"/>
				
					<rect x="1673.2" y="293.4" transform="matrix(4.233396e-03 -1 1 4.233396e-03 1340.8959 2012.6488)" class="st16" width="15.6" height="79.3"/>
				
					<rect x="1874.7" y="294.2" transform="matrix(4.258710e-03 -1 1 4.258710e-03 1540.588 2214.8884)" class="st16" width="15.6" height="79.3"/>
				
					<rect x="1181.2" y="259.4" transform="matrix(4.244690e-03 -1 1 4.244690e-03 881.9557 1489.6582)" class="st13" width="15.6" height="85.1"/>
				
					<rect x="1073.1" y="258.9" transform="matrix(4.244694e-03 -1 1 4.244694e-03 774.8055 1380.9673)" class="st14" width="15.5" height="85.1"/>
				
					<rect x="1383" y="263.2" transform="matrix(4.234764e-03 -1 1 4.234764e-03 1082.0337 1692.3042)" class="st15" width="15.6" height="79.3"/>
				
					<rect x="1575.9" y="264.1" transform="matrix(4.234553e-03 -1 1 4.234553e-03 1273.235 1886.1476)" class="st15" width="15.6" height="79.3"/>
				
					<rect x="1774" y="264.9" transform="matrix(4.258607e-03 -1 1 4.258607e-03 1469.6382 2085.0994)" class="st15" width="15.6" height="79.3"/>
				
					<rect x="1284.3" y="262.7" transform="matrix(4.233401e-03 -1 1 4.233401e-03 984.2675 1593.2448)" class="st16" width="15.6" height="79.3"/>
				
					<rect x="1480.5" y="263.6" transform="matrix(4.209450e-03 -1 1 4.209450e-03 1178.7872 1790.2839)" class="st16" width="15.6" height="79.3"/>
				
					<rect x="1874.7" y="265.3" transform="matrix(4.233504e-03 -1 1 4.233504e-03 1569.4805 2186.1738)" class="st16" width="15.6" height="79.3"/>
				
					<rect x="1181.2" y="232.7" transform="matrix(4.243515e-03 -1 1 4.243515e-03 908.6649 1463.064)" class="st13" width="15.6" height="85.1"/>
				
					<rect x="1073.1" y="232.2" transform="matrix(4.221205e-03 -1 1 4.221205e-03 801.5386 1354.3793)" class="st14" width="15.5" height="85.1"/>
				
					<rect x="1383" y="236.5" transform="matrix(4.233504e-03 -1 1 4.233504e-03 1108.7433 1665.7096)" class="st15" width="15.6" height="79.3"/>
				
					<rect x="1774" y="238.2" transform="matrix(4.258607e-03 -1 1 4.258607e-03 1496.3469 2058.5042)" class="st15" width="15.6" height="79.3"/>
				
					<rect x="1480.5" y="236.9" transform="matrix(4.258601e-03 -1 1 4.258601e-03 1205.4229 1763.6735)" class="st16" width="15.6" height="79.3"/>
				
					<rect x="1874.7" y="238.6" transform="matrix(4.258710e-03 -1 1 4.258710e-03 1596.1407 2159.5718)" class="st16" width="15.6" height="79.3"/>
				
					<rect x="1077" y="209" transform="matrix(4.244694e-03 -1 1 4.244694e-03 824.6533 1331.3641)" class="st17" width="7.8" height="85.1"/>
				
					<rect x="1386.9" y="213.3" transform="matrix(4.258710e-03 -1 1 4.258710e-03 1131.8951 1642.6475)" class="st18" width="7.8" height="79.3"/>
				
					<rect x="1777.9" y="215" transform="matrix(4.233401e-03 -1 1 4.233401e-03 1519.5944 2035.4431)" class="st18" width="7.8" height="79.3"/>
				
					<rect x="1484.4" y="213.7" transform="matrix(4.258601e-03 -1 1 4.258601e-03 1228.6132 1740.6161)" class="st19" width="7.8" height="79.3"/>
			</g>
		</g>
		<g class="st1">
			<defs>
				<rect id="SVGID_7_" x="51.6" y="-802.2" width="1033.9" height="1533.2"/>
			</defs>
			<clipPath id="SVGID_8_">
				<use xlink:href="#SVGID_7_"  style="overflow:visible;"/>
			</clipPath>
			<g class="st20">
				
					<rect x="244.1" y="415.5" transform="matrix(4.221180e-03 -1 1 4.221180e-03 -173.4977 741.9596)" class="st5" width="83.5" height="85.1"/>
				
					<rect x="136.2" y="414.6" transform="matrix(4.221205e-03 -1 1 4.221205e-03 -280.2847 632.9074)" class="st6" width="82.9" height="85.1"/>
				
					<rect x="446" y="419.3" transform="matrix(4.233422e-03 -1 1 4.233422e-03 26.5253 944.6367)" class="st7" width="83.3" height="79.3"/>
				
					<rect x="638.9" y="420.4" transform="matrix(4.234607e-03 -1 1 4.234607e-03 217.5977 1138.6068)" class="st7" width="83.3" height="79.3"/>
				
					<rect x="837" y="421.2" transform="matrix(4.234813e-03 -1 1 4.234813e-03 414.043 1337.5675)" class="st7" width="83.3" height="79.3"/>
				
					<rect x="347.3" y="418.8" transform="matrix(4.233347e-03 -1 1 4.233347e-03 -71.1528 845.4885)" class="st8" width="83.3" height="79.3"/>
				
					<rect x="543.5" y="419.8" transform="matrix(4.234629e-03 -1 1 4.234629e-03 123.1977 1042.651)" class="st8" width="83.3" height="79.3"/>
				
					<rect x="736.2" y="420.9" transform="matrix(4.233559e-03 -1 1 4.233559e-03 314.0149 1236.4709)" class="st8" width="83.3" height="79.3"/>
				
					<rect x="937.7" y="421.6" transform="matrix(4.258818e-03 -1 1 4.258818e-03 513.8264 1438.6118)" class="st8" width="83.3" height="79.3"/>
				
					<rect x="262.2" y="332.2" transform="matrix(4.221205e-03 -1 1 4.221205e-03 -90.1296 659.0993)" class="st9" width="47.4" height="85.1"/>
				
					<rect x="154.2" y="331.5" transform="matrix(4.221205e-03 -1 1 4.221205e-03 -197.1102 550.2384)" class="st10" width="47.1" height="85.1"/>
				
					<rect x="464" y="336" transform="matrix(4.233525e-03 -1 1 4.233525e-03 109.9158 861.7559)" class="st11" width="47.3" height="79.3"/>
				
					<rect x="657" y="337" transform="matrix(4.258553e-03 -1 1 4.258553e-03 301.0405 1055.6473)" class="st11" width="47.3" height="79.3"/>
				
					<rect x="855.1" y="337.8" transform="matrix(4.233552e-03 -1 1 4.233552e-03 497.5041 1254.6176)" class="st11" width="47.3" height="79.3"/>
				
					<rect x="365.4" y="335.5" transform="matrix(4.233401e-03 -1 1 4.233401e-03 12.1911 762.6528)" class="st12" width="47.3" height="79.3"/>
				
					<rect x="561.6" y="336.5" transform="matrix(4.233450e-03 -1 1 4.233450e-03 206.6118 959.7469)" class="st12" width="47.3" height="79.3"/>
				
					<rect x="754.3" y="337.5" transform="matrix(4.233402e-03 -1 1 4.233402e-03 397.5209 1153.4767)" class="st12" width="47.3" height="79.3"/>
				
					<rect x="955.7" y="338.2" transform="matrix(4.209503e-03 -1 1 4.209503e-03 597.3294 1355.6888)" class="st12" width="47.3" height="79.3"/>
				
					<rect x="278.1" y="284.3" transform="matrix(4.221154e-03 -1 1 4.221154e-03 -42.0773 611.3871)" class="st13" width="15.6" height="85.1"/>
				
					<rect x="170" y="283.7" transform="matrix(4.243520e-03 -1 1 4.243520e-03 -149.2335 502.6884)" class="st14" width="15.5" height="85.1"/>
				
					<rect x="479.9" y="288" transform="matrix(4.234786e-03 -1 1 4.234786e-03 157.9853 814.0257)" class="st15" width="15.6" height="79.3"/>
				
					<rect x="672.9" y="288.9" transform="matrix(4.209402e-03 -1 1 4.209402e-03 349.2034 1007.8763)" class="st15" width="15.6" height="79.3"/>
				
					<rect x="871" y="289.8" transform="matrix(4.258601e-03 -1 1 4.258601e-03 545.6128 1206.8191)" class="st15" width="15.6" height="79.3"/>
				
					<rect x="381.3" y="287.6" transform="matrix(4.233401e-03 -1 1 4.233401e-03 60.2183 714.9658)" class="st16" width="15.6" height="79.3"/>
				
					<rect x="577.5" y="288.4" transform="matrix(4.233450e-03 -1 1 4.233450e-03 254.7018 911.9969)" class="st16" width="15.6" height="79.3"/>
				
					<rect x="770.2" y="289.4" transform="matrix(4.233402e-03 -1 1 4.233402e-03 445.6911 1105.6461)" class="st16" width="15.6" height="79.3"/>
				
					<rect x="971.6" y="290.2" transform="matrix(4.258655e-03 -1 1 4.258655e-03 645.4064 1307.8862)" class="st16" width="15.6" height="79.3"/>
				
					<rect x="278.1" y="255.4" transform="matrix(4.244644e-03 -1 1 4.244644e-03 -13.2385 582.6561)" class="st13" width="15.6" height="85.1"/>
				
					<rect x="170" y="254.9" transform="matrix(4.244695e-03 -1 1 4.244695e-03 -120.3887 473.9651)" class="st14" width="15.5" height="85.1"/>
				
					<rect x="479.9" y="259.2" transform="matrix(4.234786e-03 -1 1 4.234786e-03 186.8307 785.3021)" class="st15" width="15.6" height="79.3"/>
				
					<rect x="672.9" y="260.1" transform="matrix(4.234607e-03 -1 1 4.234607e-03 378.0312 979.145)" class="st15" width="15.6" height="79.3"/>
				
					<rect x="871" y="260.9" transform="matrix(4.258601e-03 -1 1 4.258601e-03 574.4568 1178.0977)" class="st15" width="15.6" height="79.3"/>
				
					<rect x="381.3" y="258.7" transform="matrix(4.233401e-03 -1 1 4.233401e-03 89.0632 686.2427)" class="st16" width="15.6" height="79.3"/>
				
					<rect x="577.5" y="259.6" transform="matrix(4.209504e-03 -1 1 4.209504e-03 283.5608 883.2811)" class="st16" width="15.6" height="79.3"/>
				
					<rect x="971.6" y="261.3" transform="matrix(4.233448e-03 -1 1 4.233448e-03 674.276 1279.1716)" class="st16" width="15.6" height="79.3"/>
				
					<rect x="278.1" y="228.7" transform="matrix(4.243469e-03 -1 1 4.243469e-03 13.4696 556.0618)" class="st13" width="15.6" height="85.1"/>
				
					<rect x="170" y="228.2" transform="matrix(4.221205e-03 -1 1 4.221205e-03 -93.6768 447.3769)" class="st14" width="15.5" height="85.1"/>
				
					<rect x="479.9" y="232.5" transform="matrix(4.233525e-03 -1 1 4.233525e-03 213.5391 758.7076)" class="st15" width="15.6" height="79.3"/>
				
					<rect x="871" y="234.2" transform="matrix(4.258601e-03 -1 1 4.258601e-03 601.1655 1151.5024)" class="st15" width="15.6" height="79.3"/>
				
					<rect x="577.5" y="232.9" transform="matrix(4.258656e-03 -1 1 4.258656e-03 310.2408 856.671)" class="st16" width="15.6" height="79.3"/>
				
					<rect x="971.6" y="234.6" transform="matrix(4.258655e-03 -1 1 4.258655e-03 700.9592 1252.5696)" class="st16" width="15.6" height="79.3"/>
				
					<rect x="173.9" y="205" transform="matrix(4.244695e-03 -1 1 4.244695e-03 -70.5408 424.3621)" class="st17" width="7.8" height="85.1"/>
				
					<rect x="483.9" y="209.3" transform="matrix(4.258732e-03 -1 1 4.258732e-03 236.7142 735.6461)" class="st18" width="7.8" height="79.3"/>
				
					<rect x="874.9" y="211" transform="matrix(4.233396e-03 -1 1 4.233396e-03 624.3898 1128.4408)" class="st18" width="7.8" height="79.3"/>
				
					<rect x="581.4" y="209.7" transform="matrix(4.258656e-03 -1 1 4.258656e-03 333.4312 833.6138)" class="st19" width="7.8" height="79.3"/>
			</g>
		</g>
		<g class="st1">
			<defs>
				<rect id="SVGID_9_" x="-748.1" y="-809.5" width="1033.9" height="1533.2"/>
			</defs>
			<clipPath id="SVGID_10_">
				<use xlink:href="#SVGID_9_"  style="overflow:visible;"/>
			</clipPath>
			<g class="st21">
				
					<rect x="37.3" y="413.9" transform="matrix(4.234813e-03 -1 1 4.234813e-03 -374.9948 530.6357)" class="st7" width="83.3" height="79.3"/>
				
					<rect x="-63.5" y="413.6" transform="matrix(4.233559e-03 -1 1 4.233559e-03 -475.024 429.5391)" class="st8" width="83.3" height="79.3"/>
				
					<rect x="55.4" y="330.6" transform="matrix(4.233552e-03 -1 1 4.233552e-03 -291.5347 447.6857)" class="st11" width="47.3" height="79.3"/>
				
					<rect x="-45.4" y="330.2" transform="matrix(4.233402e-03 -1 1 4.233402e-03 -391.5181 346.5448)" class="st12" width="47.3" height="79.3"/>
				
					<rect x="71.3" y="282.5" transform="matrix(4.258601e-03 -1 1 4.258601e-03 -243.406 399.8875)" class="st15" width="15.6" height="79.3"/>
				
					<rect x="-29.5" y="282.1" transform="matrix(4.233402e-03 -1 1 4.233402e-03 -343.3478 298.7143)" class="st16" width="15.6" height="79.3"/>
				
					<rect x="71.3" y="253.6" transform="matrix(4.258601e-03 -1 1 4.258601e-03 -214.562 371.166)" class="st15" width="15.6" height="79.3"/>
				
					<rect x="71.3" y="226.9" transform="matrix(4.258601e-03 -1 1 4.258601e-03 -187.8533 344.5708)" class="st15" width="15.6" height="79.3"/>
				
					<rect x="75.2" y="203.8" transform="matrix(4.233396e-03 -1 1 4.233396e-03 -164.6492 321.5089)" class="st18" width="7.8" height="79.3"/>
			</g>
		</g>
	</g>
	<g class="st0">
		<text transform="matrix(1 0 0 1 301.721 388.3877)" class="st22 st23">A Project by Spencer Haugh</text>
	</g>
</g>
<g>
	<text transform="matrix(1 0 0 1 671.3273 158.5454)" class="st22 st23">Doge Trackr</text>
</g>
<text transform="matrix(1 0 0 1 718.2377 193.7451)" class="st22 st24">(skipping a vowel is still hip, yeah?)</text>
</svg>
